<?xml version="1.0" encoding="UTF-8" standalone="no"?>
<svg
   id="Camada_1"
   viewBox="0 0 603.2832 257.23916"
   version="1.1"
   sodipodi:docname="Logo10.svg"
   width="603.2832"
   height="257.23917"
   inkscape:version="1.2.2 (b0a8486, 2022-12-01)"
   xmlns:inkscape="http://www.inkscape.org/namespaces/inkscape"
   xmlns:sodipodi="http://sodipodi.sourceforge.net/DTD/sodipodi-0.dtd"
   xmlns="http://www.w3.org/2000/svg"
   xmlns:svg="http://www.w3.org/2000/svg">
  <sodipodi:namedview
     id="namedview166"
     pagecolor="#ffffff"
     bordercolor="#000000"
     borderopacity="0.25"
     inkscape:showpageshadow="2"
     inkscape:pageopacity="0.0"
     inkscape:pagecheckerboard="0"
     inkscape:deskcolor="#d1d1d1"
     showgrid="false"
     inkscape:zoom="1.0636012"
     inkscape:cx="356.33655"
     inkscape:cy="167.35595"
     inkscape:window-width="1436"
     inkscape:window-height="978"
     inkscape:window-x="0"
     inkscape:window-y="25"
     inkscape:window-maximized="0"
     inkscape:current-layer="Camada_1" />
  <defs
     id="defs85">
    <style
       id="style83">.cls-1{fill:#fff;}.cls-2{fill:#3f3f3f;}</style>
  </defs>
  <g
     id="g163">
    <g
       id="g117"
       transform="translate(-238.35838,-411.52473)">
      <g
         id="g101">
        <path
           class="cls-1"
           d="m 302.12,465.93 c 0,8 -1.55,13.74 -4.65,17.25 -3.1,3.5 -7.43,5.26 -13,5.26 -5.57,0 -9.93,-1.75 -13.07,-5.26 -3.15,-3.5 -4.72,-9.25 -4.72,-17.25 V 414.32 H 240 v 52.41 c 0,13.92 3.88,24.7 11.66,32.34 7.77,7.64 18.62,11.45 32.54,11.45 13.92,0 24.68,-3.82 32.54,-11.45 7.86,-7.63 11.79,-18.41 11.79,-32.34 v -52.41 h -26.41 z"
           id="path89" />
        <path
           class="cls-1"
           d="m 408.23,460.74 c -3.19,-2.02 -6.67,-3.64 -10.44,-4.85 -3.77,-1.21 -7.57,-2.22 -11.39,-3.03 -3.82,-0.81 -7.3,-1.59 -10.44,-2.36 -3.15,-0.76 -5.71,-1.75 -7.68,-2.96 -1.98,-1.21 -2.96,-2.9 -2.96,-5.05 0,-1.44 0.49,-2.78 1.48,-4.04 0.99,-1.26 2.6,-2.29 4.85,-3.1 2.24,-0.81 5.21,-1.21 8.89,-1.21 4.13,0 8.4,0.59 12.8,1.75 4.4,1.17 8.85,3.01 13.34,5.52 l 8.08,-19.67 c -4.58,-2.78 -9.86,-4.87 -15.83,-6.27 -5.97,-1.39 -12.06,-2.09 -18.26,-2.09 -9.25,0 -16.98,1.39 -23.18,4.18 -6.2,2.79 -10.83,6.47 -13.88,11.05 -3.05,4.58 -4.58,9.66 -4.58,15.23 0,5.03 0.96,9.21 2.9,12.53 1.93,3.32 4.47,6.02 7.61,8.08 3.14,2.07 6.65,3.73 10.51,4.99 3.86,1.26 7.66,2.27 11.39,3.03 3.73,0.76 7.19,1.57 10.38,2.43 3.19,0.85 5.77,1.89 7.75,3.1 1.97,1.21 2.96,2.85 2.96,4.92 0,1.62 -0.52,3.01 -1.55,4.18 -1.03,1.17 -2.65,2.07 -4.85,2.69 -2.2,0.63 -5.19,0.94 -8.96,0.94 -5.48,0 -10.98,-0.88 -16.51,-2.63 -5.52,-1.75 -10.4,-3.98 -14.62,-6.67 l -8.76,19.81 c 4.4,2.96 10.17,5.41 17.31,7.34 7.14,1.93 14.62,2.9 22.43,2.9 9.34,0 17.11,-1.39 23.31,-4.18 6.2,-2.78 10.85,-6.49 13.95,-11.12 3.1,-4.63 4.65,-9.68 4.65,-15.16 0,-4.94 -0.99,-9.05 -2.96,-12.33 -1.98,-3.28 -4.56,-5.93 -7.75,-7.95 z"
           id="path91" />
        <path
           class="cls-1"
           d="m 469.34,415.27 -41.64,94.32 h 27.22 l 7.41,-18.46 h 39.89 l 7.41,18.46 h 27.76 l -41.77,-94.32 h -26.27 z m 0.83,56.32 12.1,-30.16 12.1,30.16 h -24.21 z"
           id="path93" />
        <path
           class="cls-1"
           d="m 618.1,421.06 c -7.91,-3.86 -17.02,-5.79 -27.35,-5.79 h -44.6 v 94.32 h 44.6 c 10.33,0 19.45,-1.93 27.35,-5.79 7.9,-3.86 14.08,-9.32 18.53,-16.37 4.45,-7.05 6.67,-15.43 6.67,-25.13 0,-9.7 -2.22,-17.92 -6.67,-24.93 -4.45,-7.01 -10.62,-12.44 -18.53,-16.3 z m -5.12,55.18 c -2.25,3.91 -5.37,6.89 -9.36,8.96 -4,2.07 -8.74,3.1 -14.22,3.1 h -16.57 v -51.74 h 16.57 c 5.48,0 10.22,1.03 14.22,3.1 4,2.07 7.12,5.01 9.36,8.83 2.24,3.82 3.37,8.47 3.37,13.95 0,5.48 -1.12,9.9 -3.37,13.81 z"
           id="path95" />
        <path
           class="cls-1"
           d="m 837.04,468.69 c -1.98,-3.28 -4.56,-5.93 -7.75,-7.95 -3.19,-2.02 -6.67,-3.64 -10.44,-4.85 -3.77,-1.21 -7.57,-2.22 -11.39,-3.03 -3.82,-0.81 -7.3,-1.59 -10.44,-2.36 -3.15,-0.76 -5.71,-1.75 -7.68,-2.96 -1.98,-1.21 -2.96,-2.9 -2.96,-5.05 0,-1.44 0.49,-2.78 1.48,-4.04 0.99,-1.26 2.6,-2.29 4.85,-3.1 2.24,-0.81 5.21,-1.21 8.89,-1.21 4.13,0 8.4,0.59 12.8,1.75 4.4,1.17 8.85,3.01 13.34,5.52 l 8.08,-19.67 c -4.58,-2.78 -9.86,-4.87 -15.83,-6.27 -5.97,-1.39 -12.06,-2.09 -18.26,-2.09 -9.25,0 -16.98,1.39 -23.18,4.18 -6.2,2.79 -10.83,6.47 -13.88,11.05 -3.05,4.58 -4.58,9.66 -4.58,15.23 0,5.03 0.96,9.21 2.9,12.53 1.93,3.32 4.47,6.02 7.61,8.08 3.14,2.07 6.65,3.73 10.51,4.99 3.86,1.26 7.66,2.27 11.39,3.03 3.73,0.76 7.19,1.57 10.38,2.43 3.19,0.85 5.77,1.89 7.75,3.1 1.97,1.21 2.96,2.85 2.96,4.92 0,1.62 -0.52,3.01 -1.55,4.18 -1.03,1.17 -2.65,2.07 -4.85,2.69 -2.2,0.63 -5.19,0.94 -8.96,0.94 -5.48,0 -10.98,-0.88 -16.51,-2.63 -5.52,-1.75 -10.4,-3.98 -14.62,-6.67 l -8.76,19.81 c 4.4,2.96 10.17,5.41 17.31,7.34 7.14,1.93 14.62,2.9 22.43,2.9 9.34,0 17.11,-1.39 23.31,-4.18 6.2,-2.78 10.85,-6.49 13.95,-11.12 3.1,-4.63 4.65,-9.68 4.65,-15.16 0,-4.94 -0.99,-9.05 -2.96,-12.33 z"
           id="path97" />
        <path
           class="cls-1"
           d="m 678.93,481.11 c -1.02,0.17 -1.41,1.66 -0.41,2.83 0.93,0.92 1.86,0.6 2.22,0.08 0.8,-1.16 -0.43,-3.14 -1.81,-2.91 z m 9.11,-28.5 c -1.54,0.25 -2.53,2.24 -1.33,3.61 1.09,1.01 2.4,0.43 2.97,-0.31 1.17,-1.5 0.12,-3.6 -1.64,-3.31 z m 49.54,29.77 c 0.82,-1.35 0.49,-2.83 -0.57,-2.58 -1.17,0.27 -2.3,2.47 -1.51,3.49 0.67,0.63 1.62,-0.15 2.08,-0.91 z m -50.79,18.08 c -0.96,-0.63 -2.46,-0.55 -2.35,0.12 0.03,0.2 0.19,0.35 0.29,0.45 0.7,0.57 1.66,0.67 2.11,0.57 0.65,-0.15 0.63,-0.69 -0.05,-1.14 z m -12.08,-4.38 c -0.46,-0.17 -0.72,0.03 -0.53,0.43 0.08,0.16 0.19,0.28 0.26,0.36 0.5,0.47 0.94,0.53 1.1,0.46 0.38,-0.18 -0.16,-0.99 -0.83,-1.24 z m 57.15,-53.52 c 0.61,-1.09 -0.78,-2.8 -1.99,-2.43 -0.79,0.24 -0.98,1.33 -0.04,2.33 0.95,0.87 1.76,0.58 2.03,0.1 z m 11.19,3.44 c 0.01,-0.13 0,-0.32 -0.03,-0.52 -0.16,-0.93 -0.8,-2.12 -1.03,-1.77 -0.19,0.29 0.04,1.61 0.6,2.35 0.36,0.42 0.44,0.1 0.46,-0.06 z m -23.83,22.67 c -1.52,0.32 -2.31,2.32 -1.02,3.75 1.2,1.1 2.54,0.51 3.1,-0.25 1.2,-1.62 -0.16,-3.91 -2.08,-3.5 z m -12.18,-25.99 c 1.15,0.97 2.47,0.6 3.04,0.04 1.14,-1.13 0.09,-2.9 -1.7,-2.88 -1.56,0.02 -2.57,1.58 -1.34,2.84 z m 28.7,52.1 c -0.25,0.78 -0.82,1.6 -1.55,2.41 0.24,-0.23 0.48,-0.45 0.72,-0.68 4.07,-4.07 7.29,-8.66 9.67,-13.55 -0.6,0.69 -1.34,1.8 -1.96,2.78 -2.1,3.32 -3.16,4.98 -6.87,9.04 z m -2.96,2.06 c -0.81,-0.13 -3.23,1.97 -2.92,2.52 0,0.01 0.02,0.03 0.03,0.04 0.39,0.22 1.46,-0.51 2.04,-1.03 0.85,-0.75 1.24,-1.47 0.84,-1.53 z m 3.86,-29.5 c 1.38,-0.36 3.22,-0.9 4.57,-1.37 6.23,-2.15 7.22,5.08 7.28,5.68 3.33,-15.53 -0.9,-32.21 -12.78,-44.09 -18.82,-18.82 -49.69,-18.47 -68.95,0.79 -19.26,19.26 -19.61,50.13 -0.79,68.95 18.82,18.82 46.56,18.44 65.9,2.01 -2.34,1.77 -4.89,2.89 -5.16,1.99 -0.5,-1.72 5.44,-6.8 7.88,-7.2 1.15,-0.19 5.12,-5.67 6.75,-8.15 1.1,-1.71 3.58,-5.57 4.88,-6.75 0.6,-1.55 1.13,-3.13 1.57,-4.72 -0.1,-0.65 -0.52,-1.72 -2.21,-4.2 -1.09,-1.33 -2.15,-1.51 -4.18,-0.72 -3.17,1.24 -6.44,2.52 -16.15,3.27 -1.97,5.58 -9.23,5.9 -11.43,0.51 -2.19,-5.38 2.78,-10.72 7.94,-8.53 1.66,0.71 2.84,2.01 3.51,3.87 4.79,-0.31 4.97,-0.32 7.3,-0.63 -6.14,-6.55 -11.86,-12.45 -21.4,-21.6 -6.24,1.88 -10.14,-3.54 -8.05,-7.06 2.5,-4.22 10.25,-3.02 11.2,1.74 0.27,1.33 -0.09,2.17 -0.43,2.98 6.8,6.48 14.26,13.77 22.77,23.22 z m 11.55,-11.47 0.05,0.26 c -0.05,-0.24 -0.11,-0.48 -0.16,-0.74 0.04,0.16 0.08,0.31 0.11,0.48 z m -6.95,-14.49 c 0.29,-0.02 0.62,0.42 0.88,0.77 0.15,0.23 0.33,0.53 0.46,0.77 0.47,0.85 0.66,1.82 1.12,2.68 0.96,1.78 2.35,3.29 3.13,5.17 0.07,0.18 0.15,0.43 0.21,0.62 0.28,0.94 0.58,2.1 0.85,3.19 -0.41,-1.47 -1.16,-3.06 -3.77,-6.61 -0.17,1.95 -1.29,0.69 -1.51,0.42 -1.84,-2.26 -2.33,-6.93 -1.37,-7.01 z m -14.8,-1.96 c 0.94,-2.82 5.53,-2.55 7.41,1.23 0.68,1.36 0.59,2.46 0.54,3.05 11.58,12.11 14.35,17.37 14.64,19.65 v 2.34 c 0,0 -0.04,1.08 -0.04,1.08 -0.48,-4.88 -12.26,-17.34 -15.85,-21.04 -3.74,1.77 -7.67,-3.43 -6.71,-6.31 z m -34.11,67.47 c -3.02,-0.9 -5.08,-1.36 -8.72,-2.95 -3.43,-1.59 -4.32,-2.49 -7.54,-5.51 -2.49,-0.81 -3.98,-3.19 -2.83,-3.79 1.42,-0.75 4.53,2.19 4.2,3.34 -0.04,0.13 -0.16,0.27 -0.22,0.38 1.52,1.42 1.88,1.75 3.59,3.23 0.88,0.7 2.35,1.87 9.73,4.07 -1.64,-1.22 -1.93,-1.44 -3.48,-2.69 -4.41,-0.72 -6.37,-3.15 -4.44,-4.31 2.47,-1.48 8.42,1.11 7.67,3.33 -0.13,0.4 -0.53,0.62 -0.81,0.78 2.29,1.86 4.66,3.77 7.69,5.51 l 1.5,0.88 c -3.59,-0.55 -4.28,-0.98 -6.34,-2.28 z m 17.39,2.36 c 0,0 0,0 -0.01,0 -0.66,0.08 -1.32,0 -1.94,-0.2 l -0.17,-0.06 c -4.74,-1.89 -14.17,-9.79 -25.69,-21.57 -5.11,1.35 -8,-5.18 -5.92,-8.33 0.9,-1.35 3.78,-2.9 6.97,0.96 1.05,1.67 1.62,3.23 0.96,5.41 17.23,17.5 26.1,23.53 28.46,23.37 0,0 -2,0.34 -2.67,0.43 z m 17.48,-18.57 c 1.6,-1.61 3.7,-3.78 5.2,-5.48 -1.09,-5.31 4.29,-10.39 6.81,-8.86 3.1,1.88 0.16,9.72 -3.98,10.62 -0.34,0.07 -0.81,0.05 -1.16,0 -3.65,4.06 -3.94,4.39 -6.62,6.77 -3.37,3.08 -4.65,7.63 -7.79,10.87 1.12,0.7 1.55,0.93 2.29,1.19 l -2.14,0.93 -0.22,0.08 c -1.01,0.3 -3.37,1.01 -23.29,-18.11 -6.43,1.45 -10.13,-5.02 -7.83,-8.76 2.65,-4.31 10.16,-2.11 11.16,3.27 0.29,1.54 -0.12,2.44 -0.51,3.3 5.84,5.64 12.35,11.87 18.56,16.67 1.39,-1.89 1.98,-2.57 2.74,-4.35 0.9,-1.95 1.87,-3.31 3.82,-5.38 -12.65,-12 -26.46,-25.98 -33.56,-33.24 -5.94,2.54 -9.44,-3 -7.66,-7.38 2.02,-4.97 8.5,-5.69 10.66,-1.19 1.14,2.38 0.3,4.51 -0.1,5.54 17.87,18 28.73,28.72 33.62,33.51 z m -34.12,-9.06 c -1.44,0.13 -2.13,1.77 -0.86,3.15 1.17,1.07 2.46,0.75 3,0.18 1.18,-1.25 -0.26,-3.49 -2.14,-3.32 z"
           id="path99" />
      </g>
      <g
         id="g115">
        <path
           class="cls-1"
           d="m 261.42,545.89 c 3.59,-3.55 7.81,-6.29 12.67,-8.22 4.85,-1.93 10.11,-2.9 15.76,-2.9 5.65,0 10.42,0.88 15.09,2.63 4.67,1.75 8.94,4.6 12.8,8.56 l 6.33,-6.33 c -4.13,-4.58 -9.21,-8.02 -15.23,-10.31 -6.02,-2.29 -12.44,-3.44 -19.27,-3.44 -6.83,0 -13.66,1.19 -19.67,3.57 -6.02,2.38 -11.25,5.73 -15.7,10.04 -4.45,4.31 -7.91,9.39 -10.38,15.23 -2.47,5.84 -3.71,12.22 -3.71,19.13 0,6.91 1.23,13.3 3.71,19.13 2.47,5.84 5.91,10.91 10.31,15.23 4.4,4.31 9.61,7.66 15.63,10.04 6.02,2.38 12.58,3.57 19.67,3.57 7.09,0 13.38,-1.17 19.4,-3.5 6.02,-2.33 11.09,-5.79 15.23,-10.37 l -6.33,-6.33 c -3.86,3.95 -8.13,6.83 -12.8,8.62 -4.67,1.8 -9.7,2.69 -15.09,2.69 -5.66,0 -10.91,-0.96 -15.76,-2.9 -4.85,-1.93 -9.07,-4.67 -12.67,-8.22 -3.59,-3.55 -6.4,-7.68 -8.42,-12.4 -2.02,-4.72 -3.03,-9.9 -3.03,-15.56 0,-5.66 1.01,-10.85 3.03,-15.56 2.02,-4.72 4.83,-8.85 8.42,-12.4 z"
           id="path103" />
        <path
           class="cls-1"
           d="m 370.97,526.69 -43.12,94.32 h 10.38 l 11.28,-25.2 h 52.64 l 11.28,25.2 h 10.51 l -43.12,-94.32 h -9.84 z m -17.85,61.04 22.7,-50.73 22.7,50.73 z"
           id="path105" />
        <path
           class="cls-1"
           d="m 504.43,532.68 c -7.59,-4 -16.42,-6 -26.48,-6 h -38.4 V 621 h 38.4 c 10.06,0 18.88,-2 26.48,-6 7.59,-4 13.5,-9.54 17.72,-16.64 4.22,-7.09 6.33,-15.27 6.33,-24.52 0,-9.25 -2.11,-17.43 -6.33,-24.52 -4.22,-7.09 -10.13,-12.64 -17.72,-16.64 z m 9.1,61.17 c -3.42,5.79 -8.2,10.33 -14.35,13.61 -6.15,3.28 -13.41,4.92 -21.76,4.92 h -27.89 v -77.07 h 27.89 c 8.35,0 15.61,1.64 21.76,4.92 6.15,3.28 10.94,7.79 14.35,13.54 3.41,5.75 5.12,12.44 5.12,20.08 0,7.64 -1.71,14.22 -5.12,20.01 z"
           id="path107" />
        <path
           class="cls-1"
           d="m 563.78,545.89 c 3.59,-3.55 7.82,-6.29 12.67,-8.22 4.85,-1.93 10.11,-2.9 15.76,-2.9 5.65,0 10.42,0.88 15.09,2.63 4.67,1.75 8.94,4.6 12.8,8.56 l 6.33,-6.33 c -4.13,-4.58 -9.21,-8.02 -15.23,-10.31 -6.02,-2.29 -12.44,-3.44 -19.27,-3.44 -6.83,0 -13.66,1.19 -19.67,3.57 -6.02,2.38 -11.25,5.73 -15.7,10.04 -4.45,4.31 -7.91,9.39 -10.38,15.23 -2.47,5.84 -3.71,12.22 -3.71,19.13 0,6.91 1.23,13.3 3.71,19.13 2.47,5.84 5.91,10.91 10.31,15.23 4.4,4.31 9.61,7.66 15.63,10.04 6.02,2.38 12.58,3.57 19.67,3.57 7.09,0 13.38,-1.17 19.4,-3.5 6.02,-2.33 11.09,-5.79 15.23,-10.37 l -6.33,-6.33 c -3.86,3.95 -8.13,6.83 -12.8,8.62 -4.67,1.8 -9.7,2.69 -15.09,2.69 -5.66,0 -10.91,-0.96 -15.76,-2.9 -4.85,-1.93 -9.07,-4.67 -12.67,-8.22 -3.59,-3.55 -6.4,-7.68 -8.42,-12.4 -2.02,-4.72 -3.03,-9.9 -3.03,-15.56 0,-5.66 1.01,-10.85 3.03,-15.56 2.02,-4.71 4.83,-8.85 8.42,-12.4 z"
           id="path109" />
        <path
           class="cls-1"
           d="m 673.33,526.69 -43.12,94.32 h 10.38 l 11.28,-25.2 h 52.64 l 11.28,25.2 h 10.51 l -43.12,-94.32 h -9.84 z m -17.85,61.04 22.7,-50.73 22.7,50.73 z"
           id="path111" />
        <polygon
           class="cls-1"
           points="791.08,596.56 750.13,526.69 741.91,526.69 741.91,621 751.48,621 751.48,546 788.53,609.01 793.25,609.01 830.3,545.56 830.3,621 839.87,621 839.87,526.69 831.65,526.69 "
           id="polygon113" />
      </g>
    </g>
    <g
       id="g161"
       transform="translate(-238.35838,-411.52473)">
      <path
         class="cls-1"
         d="m 253.12,646.28 h 1.82 v 14.76 h -1.82 v -2.5 c -1.01,1.17 -2.27,1.96 -3.78,2.35 -1.51,0.39 -3,0.31 -4.46,-0.23 -1.46,-0.54 -2.64,-1.46 -3.53,-2.73 -0.9,-1.28 -1.34,-2.7 -1.34,-4.26 0,-1.56 0.45,-2.98 1.34,-4.26 0.89,-1.28 2.07,-2.19 3.53,-2.73 1.46,-0.55 2.95,-0.62 4.46,-0.23 1.51,0.39 2.77,1.18 3.78,2.38 v -2.53 z m -9.62,11.68 c 1.12,1.27 2.44,1.9 3.97,1.9 1.53,0 2.84,-0.63 3.97,-1.9 1.12,-1.27 1.68,-2.7 1.68,-4.29 0,-1.59 -0.56,-3.02 -1.68,-4.28 -1.12,-1.26 -2.44,-1.88 -3.97,-1.88 -1.53,0 -2.85,0.63 -3.97,1.88 -1.12,1.26 -1.68,2.68 -1.68,4.28 0,1.6 0.56,3.03 1.68,4.29 z"
         id="path119" />
      <path
         class="cls-1"
         d="m 282.17,646.31 h 1.82 v 20.31 h -1.82 v -8.09 c -1.01,1.17 -2.27,1.96 -3.78,2.35 -1.51,0.39 -3,0.32 -4.46,-0.22 -1.46,-0.54 -2.64,-1.45 -3.53,-2.73 -0.9,-1.29 -1.34,-2.71 -1.34,-4.28 0,-1.57 0.45,-2.98 1.34,-4.26 0.89,-1.28 2.07,-2.19 3.53,-2.73 1.46,-0.55 2.95,-0.62 4.46,-0.23 1.51,0.39 2.77,1.18 3.78,2.38 z m -9.62,11.61 c 1.12,1.26 2.44,1.88 3.97,1.88 1.53,0 2.84,-0.63 3.97,-1.88 1.12,-1.25 1.68,-2.67 1.68,-4.26 0,-1.59 -0.56,-3.01 -1.68,-4.29 -1.12,-1.28 -2.44,-1.91 -3.97,-1.91 -1.53,0 -2.85,0.64 -3.97,1.91 -1.12,1.28 -1.68,2.71 -1.68,4.29 0,1.58 0.56,3 1.68,4.26 z"
         id="path121" />
      <path
         class="cls-1"
         d="m 309.46,646.34 h 1.82 v 14.69 h -1.82 v -2.47 c -0.56,0.64 -1.19,1.15 -1.91,1.54 -0.39,0.21 -0.8,0.38 -1.23,0.53 -0.82,0.27 -1.68,0.4 -2.56,0.4 -1.23,0.04 -2.34,-0.34 -3.3,-1.14 -0.1,-0.08 -0.21,-0.17 -0.31,-0.28 -1.11,-1.28 -1.62,-2.77 -1.51,-4.48 v -8.8 h 1.82 v 8.8 c -0.1,1.21 0.24,2.29 1.02,3.24 0.66,0.62 1.44,0.96 2.35,1.02 1.44,0.14 2.74,-0.17 3.89,-0.96 1.15,-0.78 1.74,-1.88 1.76,-3.3 v -8.8 z"
         id="path123" />
      <path
         class="cls-1"
         d="m 327.64,643.67 c -0.19,0.18 -0.4,0.26 -0.65,0.26 -0.25,0 -0.46,-0.09 -0.63,-0.26 -0.17,-0.17 -0.26,-0.39 -0.26,-0.63 0,-0.24 0.09,-0.46 0.26,-0.63 0.17,-0.17 0.39,-0.26 0.63,-0.26 0.24,0 0.46,0.09 0.65,0.26 0.19,0.17 0.28,0.39 0.28,0.63 0,0.24 -0.09,0.46 -0.28,0.63 z m 0.28,17.36 h -1.82 v -14.72 h 1.82 z"
         id="path125" />
      <path
         class="cls-1"
         d="m 367.83,653.13 c 0.74,0.21 1.37,0.46 1.88,0.76 0.51,0.3 0.91,0.62 1.17,0.97 0.27,0.35 0.45,0.69 0.56,1.02 0.1,0.33 0.15,0.67 0.15,1.02 0,1.15 -0.53,2.13 -1.59,2.93 -1.06,0.8 -2.35,1.2 -3.87,1.2 -1.38,0 -2.61,-0.33 -3.7,-1 -1.09,-0.67 -1.74,-1.5 -1.94,-2.48 l 1.23,-0.25 c 0.43,0.8 1.04,1.43 1.82,1.87 0.78,0.44 1.63,0.64 2.53,0.6 1.05,0 1.95,-0.26 2.7,-0.77 0.75,-0.51 1.13,-1.21 1.13,-2.1 0,-0.89 -0.84,-1.57 -2.53,-2.01 -0.31,-0.08 -0.83,-0.19 -1.57,-0.31 -0.51,-0.1 -0.87,-0.17 -1.08,-0.22 -1.28,-0.27 -2.27,-0.75 -2.99,-1.45 -0.72,-0.7 -1.08,-1.53 -1.08,-2.5 0,-1.17 0.53,-2.16 1.59,-2.96 1.06,-0.8 2.36,-1.2 3.9,-1.2 0.97,0 1.87,0.24 2.72,0.73 0.84,0.48 1.51,1.15 2.01,1.99 l -1.17,0.53 c -0.39,-0.62 -0.9,-1.1 -1.53,-1.45 -0.63,-0.35 -1.3,-0.53 -2.02,-0.53 -0.64,0 -1.26,0.15 -1.85,0.46 -0.6,0.31 -1.06,0.68 -1.4,1.13 -0.34,0.44 -0.51,0.88 -0.51,1.31 0,1.07 0.91,1.8 2.72,2.19 0.16,0.02 0.5,0.08 1.02,0.19 0.8,0.14 1.38,0.26 1.73,0.34 z"
         id="path127" />
      <path
         class="cls-1"
         d="m 392.34,659.86 c 0.68,-0.04 1.33,-0.2 1.96,-0.46 0.63,-0.27 1.19,-0.63 1.68,-1.1 0.49,-0.47 0.9,-1 1.2,-1.62 l 1.85,0.25 c -0.6,1.19 -1.45,2.17 -2.56,2.92 -1.11,0.75 -2.33,1.17 -3.66,1.25 -1.33,0.08 -2.59,-0.17 -3.8,-0.76 -1.21,-0.59 -2.18,-1.44 -2.92,-2.55 -0.23,-0.37 -0.43,-0.76 -0.62,-1.17 -0.8,-1.83 -0.85,-3.69 -0.14,-5.57 0.71,-1.88 1.97,-3.26 3.78,-4.12 1.81,-0.86 3.67,-0.97 5.59,-0.32 1.91,0.65 3.32,1.86 4.23,3.63 0.08,0.16 0.15,0.32 0.22,0.46 0.12,0.25 0.23,0.5 0.31,0.77 l -11.76,5.59 c 0.47,0.84 1.12,1.51 1.95,2.01 0.82,0.49 1.72,0.76 2.69,0.8 z m -5.22,-4.01 10.22,-4.85 c -0.43,-1.01 -1.1,-1.83 -2.01,-2.47 -0.91,-0.64 -1.9,-0.98 -2.99,-1.02 -1.52,0 -2.85,0.63 -3.97,1.88 -1.12,1.26 -1.68,2.68 -1.68,4.26 0,0.76 0.14,1.49 0.43,2.19 z"
         id="path129" />
      <path
         class="cls-1"
         d="m 423.95,646.34 h 1.82 v 14.69 h -1.82 v -2.47 c -0.56,0.64 -1.19,1.15 -1.91,1.54 -0.39,0.21 -0.8,0.38 -1.23,0.53 -0.82,0.27 -1.68,0.4 -2.56,0.4 -1.23,0.04 -2.34,-0.34 -3.3,-1.14 -0.1,-0.08 -0.21,-0.17 -0.31,-0.28 -1.11,-1.28 -1.62,-2.77 -1.51,-4.48 v -8.8 h 1.82 v 8.8 c -0.1,1.21 0.24,2.29 1.02,3.24 0.66,0.62 1.44,0.96 2.35,1.02 1.44,0.14 2.74,-0.17 3.89,-0.96 1.15,-0.78 1.74,-1.88 1.76,-3.3 v -8.8 z"
         id="path131" />
      <path
         class="cls-1"
         d="m 469.66,646.34 h 1.82 v 14.69 h -1.82 v -2.47 c -0.56,0.64 -1.19,1.15 -1.91,1.54 -0.39,0.21 -0.8,0.38 -1.23,0.53 -0.82,0.27 -1.68,0.4 -2.56,0.4 -1.23,0.04 -2.34,-0.34 -3.3,-1.14 -0.1,-0.08 -0.21,-0.17 -0.31,-0.28 -1.11,-1.28 -1.62,-2.77 -1.51,-4.48 v -8.8 h 1.82 v 8.8 c -0.1,1.21 0.24,2.29 1.02,3.24 0.66,0.62 1.44,0.96 2.35,1.02 1.44,0.14 2.74,-0.17 3.89,-0.96 1.15,-0.78 1.74,-1.88 1.76,-3.3 v -8.8 z"
         id="path133" />
      <path
         class="cls-1"
         d="m 492.94,653.13 c 0.74,0.21 1.37,0.46 1.88,0.76 0.51,0.3 0.91,0.62 1.17,0.97 0.27,0.35 0.45,0.69 0.56,1.02 0.1,0.33 0.15,0.67 0.15,1.02 0,1.15 -0.53,2.13 -1.59,2.93 -1.06,0.8 -2.35,1.2 -3.87,1.2 -1.38,0 -2.61,-0.33 -3.7,-1 -1.09,-0.67 -1.74,-1.5 -1.95,-2.48 l 1.23,-0.25 c 0.43,0.8 1.04,1.43 1.82,1.87 0.78,0.44 1.63,0.64 2.53,0.6 1.05,0 1.95,-0.26 2.7,-0.77 0.75,-0.51 1.13,-1.21 1.13,-2.1 0,-0.89 -0.84,-1.57 -2.53,-2.01 -0.31,-0.08 -0.83,-0.19 -1.57,-0.31 -0.51,-0.1 -0.88,-0.17 -1.08,-0.22 -1.28,-0.27 -2.27,-0.75 -2.99,-1.45 -0.72,-0.7 -1.08,-1.53 -1.08,-2.5 0,-1.17 0.53,-2.16 1.59,-2.96 1.06,-0.8 2.36,-1.2 3.91,-1.2 0.97,0 1.87,0.24 2.72,0.73 0.84,0.48 1.51,1.15 2.01,1.99 l -1.17,0.53 c -0.39,-0.62 -0.9,-1.1 -1.53,-1.45 -0.63,-0.35 -1.3,-0.53 -2.02,-0.53 -0.64,0 -1.26,0.15 -1.85,0.46 -0.6,0.31 -1.07,0.68 -1.4,1.13 -0.34,0.44 -0.51,0.88 -0.51,1.31 0,1.07 0.91,1.8 2.72,2.19 0.16,0.02 0.5,0.08 1.02,0.19 0.8,0.14 1.38,0.26 1.73,0.34 z"
         id="path135" />
      <path
         class="cls-1"
         d="m 523.1,646.28 h 1.82 v 14.76 h -1.82 v -2.5 c -1.01,1.17 -2.27,1.96 -3.78,2.35 -1.51,0.39 -3,0.31 -4.46,-0.23 -1.46,-0.54 -2.64,-1.46 -3.53,-2.73 -0.89,-1.28 -1.34,-2.7 -1.34,-4.26 0,-1.56 0.45,-2.98 1.34,-4.26 0.9,-1.28 2.07,-2.19 3.53,-2.73 1.46,-0.54 2.95,-0.62 4.46,-0.23 1.51,0.39 2.77,1.18 3.78,2.38 v -2.53 z m -9.62,11.68 c 1.12,1.27 2.44,1.9 3.97,1.9 1.53,0 2.85,-0.63 3.97,-1.9 1.12,-1.27 1.68,-2.7 1.68,-4.29 0,-1.59 -0.56,-3.02 -1.68,-4.28 -1.12,-1.26 -2.44,-1.88 -3.97,-1.88 -1.53,0 -2.85,0.63 -3.97,1.88 -1.12,1.25 -1.68,2.68 -1.68,4.28 0,1.6 0.56,3.03 1.68,4.29 z"
         id="path137" />
      <path
         class="cls-1"
         d="m 553.97,640.69 v 20.34 h -1.82 v -2.5 c -1.01,1.17 -2.27,1.96 -3.78,2.35 -1.51,0.39 -3,0.32 -4.46,-0.22 -1.46,-0.54 -2.64,-1.45 -3.53,-2.73 -0.89,-1.29 -1.34,-2.71 -1.34,-4.26 0,-1.55 0.45,-2.97 1.34,-4.26 0.9,-1.29 2.07,-2.2 3.53,-2.75 1.46,-0.55 2.95,-0.62 4.46,-0.23 1.51,0.39 2.77,1.18 3.78,2.38 v -8.12 z m -3.5,17.27 c 1.12,-1.27 1.68,-2.7 1.68,-4.29 0,-1.59 -0.56,-3.02 -1.68,-4.28 -1.12,-1.26 -2.44,-1.88 -3.97,-1.88 -1.53,0 -2.85,0.63 -3.97,1.88 -1.12,1.25 -1.68,2.68 -1.68,4.28 0,1.6 0.56,3.03 1.68,4.29 1.12,1.26 2.44,1.9 3.97,1.9 1.53,0 2.85,-0.63 3.97,-1.9 z"
         id="path139" />
      <path
         class="cls-1"
         d="m 570.27,648.39 c 1.46,-1.45 3.22,-2.18 5.28,-2.18 2.06,0 3.81,0.73 5.26,2.18 1.45,1.45 2.18,3.21 2.18,5.26 0,2.05 -0.73,3.82 -2.18,5.28 -1.45,1.46 -3.21,2.19 -5.26,2.19 -2.05,0 -3.82,-0.73 -5.28,-2.19 -1.46,-1.46 -2.19,-3.22 -2.19,-5.28 0,-2.06 0.73,-3.81 2.19,-5.26 z m 1.3,9.57 c 1.11,1.27 2.43,1.9 3.97,1.9 1.54,0 2.86,-0.63 3.98,-1.9 1.12,-1.27 1.68,-2.7 1.68,-4.31 0,-1.61 -0.56,-3 -1.68,-4.26 -1.12,-1.26 -2.45,-1.88 -3.98,-1.88 -1.53,0 -2.86,0.63 -3.97,1.88 -1.11,1.26 -1.67,2.68 -1.67,4.28 0,1.6 0.56,3.03 1.67,4.29 z"
         id="path141" />
      <path
         class="cls-1"
         d="M 628.52,646.28 H 630 l -6.91,14.76 h -2.1 l -6.91,-14.76 h 2.01 l 6.21,13.3 6.24,-13.3 z"
         id="path143" />
      <path
         class="cls-1"
         d="m 655.06,646.28 h 1.82 v 14.76 h -1.82 v -2.5 c -1.01,1.17 -2.27,1.96 -3.78,2.35 -1.51,0.39 -3,0.31 -4.46,-0.23 -1.46,-0.54 -2.64,-1.46 -3.53,-2.73 -0.89,-1.28 -1.34,-2.7 -1.34,-4.26 0,-1.56 0.45,-2.98 1.34,-4.26 0.9,-1.28 2.07,-2.19 3.53,-2.73 1.46,-0.54 2.95,-0.62 4.46,-0.23 1.51,0.39 2.77,1.18 3.78,2.38 v -2.53 z m -9.62,11.68 c 1.12,1.27 2.44,1.9 3.97,1.9 1.53,0 2.85,-0.63 3.97,-1.9 1.12,-1.27 1.68,-2.7 1.68,-4.29 0,-1.59 -0.56,-3.02 -1.68,-4.28 -1.12,-1.26 -2.44,-1.88 -3.97,-1.88 -1.53,0 -2.85,0.63 -3.97,1.88 -1.12,1.26 -1.68,2.68 -1.68,4.28 0,1.6 0.56,3.03 1.68,4.29 z"
         id="path145" />
      <path
         class="cls-1"
         d="m 673.55,661.03 h -1.82 v -20.34 h 1.82 z"
         id="path147" />
      <path
         class="cls-1"
         d="m 695.1,659.86 c 0.68,-0.04 1.33,-0.2 1.96,-0.46 0.63,-0.27 1.19,-0.63 1.68,-1.1 0.49,-0.47 0.89,-1 1.2,-1.62 l 1.85,0.25 c -0.6,1.19 -1.45,2.17 -2.56,2.92 -1.11,0.75 -2.33,1.17 -3.66,1.25 -1.33,0.08 -2.59,-0.17 -3.8,-0.76 -1.21,-0.59 -2.18,-1.44 -2.92,-2.55 -0.23,-0.37 -0.43,-0.76 -0.62,-1.17 -0.8,-1.83 -0.85,-3.69 -0.14,-5.57 0.71,-1.88 1.97,-3.26 3.78,-4.12 1.81,-0.86 3.67,-0.97 5.59,-0.32 1.91,0.65 3.32,1.86 4.23,3.63 0.08,0.16 0.15,0.32 0.22,0.46 0.12,0.25 0.23,0.5 0.31,0.77 l -11.76,5.59 c 0.47,0.84 1.12,1.51 1.95,2.01 0.82,0.49 1.72,0.76 2.69,0.8 z m -5.22,-4.01 10.22,-4.85 c -0.43,-1.01 -1.1,-1.83 -2.01,-2.47 -0.91,-0.64 -1.9,-0.98 -2.99,-1.02 -1.52,0 -2.85,0.63 -3.97,1.88 -1.12,1.25 -1.68,2.68 -1.68,4.26 0,0.76 0.14,1.49 0.43,2.19 z"
         id="path149" />
      <path
         class="cls-1"
         d="m 751.75,647.26 c 1.05,1.07 1.55,2.36 1.51,3.86 v 9.91 h -1.79 v -9.91 c 0,-0.19 -0.02,-0.4 -0.06,-0.63 -0.04,-0.24 -0.12,-0.55 -0.25,-0.94 -0.12,-0.39 -0.35,-0.72 -0.68,-0.99 -0.33,-0.27 -0.73,-0.4 -1.2,-0.4 -1.23,-0.06 -2.29,0.33 -3.18,1.19 -0.89,0.85 -1.31,1.9 -1.27,3.13 v 8.55 h -1.82 v -9.91 c 0,-0.12 -0.01,-0.27 -0.03,-0.43 -0.02,-0.16 -0.07,-0.41 -0.15,-0.73 -0.08,-0.32 -0.19,-0.6 -0.32,-0.85 -0.13,-0.25 -0.35,-0.47 -0.65,-0.66 -0.3,-0.2 -0.64,-0.29 -1.03,-0.29 -1.21,-0.06 -2.26,0.33 -3.15,1.17 -0.88,0.84 -1.32,1.88 -1.3,3.12 v 8.58 h -1.82 v -14.72 h 1.82 v 2.53 c 0.51,-0.74 1.16,-1.33 1.94,-1.76 0.78,-0.43 1.62,-0.68 2.5,-0.74 0.95,-0.02 1.77,0.29 2.47,0.93 0.58,0.54 0.98,1.19 1.2,1.98 0.16,-0.23 0.28,-0.37 0.34,-0.43 0.25,-0.35 0.54,-0.67 0.86,-0.97 0.33,-0.3 0.68,-0.55 1.06,-0.76 0.38,-0.21 0.78,-0.37 1.2,-0.49 0.42,-0.12 0.86,-0.21 1.31,-0.25 0.95,-0.02 1.77,0.29 2.47,0.93 z"
         id="path151" />
      <path
         class="cls-1"
         d="m 780.33,646.28 h 1.82 v 14.76 h -1.82 v -2.5 c -1.01,1.17 -2.27,1.96 -3.78,2.35 -1.51,0.39 -3,0.31 -4.46,-0.23 -1.46,-0.54 -2.64,-1.46 -3.53,-2.73 -0.89,-1.28 -1.34,-2.7 -1.34,-4.26 0,-1.56 0.45,-2.98 1.34,-4.26 0.9,-1.28 2.07,-2.19 3.53,-2.73 1.46,-0.54 2.95,-0.62 4.46,-0.23 1.51,0.39 2.77,1.18 3.78,2.38 v -2.53 z m -9.62,11.68 c 1.12,1.27 2.44,1.9 3.97,1.9 1.53,0 2.85,-0.63 3.97,-1.9 1.12,-1.27 1.68,-2.7 1.68,-4.29 0,-1.59 -0.56,-3.02 -1.68,-4.28 -1.12,-1.26 -2.44,-1.88 -3.97,-1.88 -1.53,0 -2.85,0.63 -3.97,1.88 -1.12,1.25 -1.68,2.68 -1.68,4.28 0,1.6 0.56,3.03 1.68,4.29 z"
         id="path153" />
      <path
         class="cls-1"
         d="m 798.54,643.67 c -0.18,0.18 -0.4,0.26 -0.65,0.26 -0.25,0 -0.46,-0.09 -0.63,-0.26 -0.18,-0.17 -0.26,-0.39 -0.26,-0.63 0,-0.24 0.09,-0.46 0.26,-0.63 0.17,-0.17 0.39,-0.26 0.63,-0.26 0.24,0 0.46,0.09 0.65,0.26 0.19,0.17 0.28,0.39 0.28,0.63 0,0.24 -0.09,0.46 -0.28,0.63 z m 0.28,17.36 H 797 v -14.72 h 1.82 z"
         id="path155" />
      <path
         class="cls-1"
         d="m 820.27,653.13 c 0.74,0.21 1.37,0.46 1.88,0.76 0.51,0.3 0.91,0.62 1.17,0.97 0.27,0.35 0.45,0.69 0.56,1.02 0.1,0.33 0.15,0.67 0.15,1.02 0,1.15 -0.53,2.13 -1.59,2.93 -1.06,0.8 -2.35,1.2 -3.87,1.2 -1.38,0 -2.61,-0.33 -3.7,-1 -1.09,-0.67 -1.74,-1.5 -1.95,-2.48 l 1.23,-0.25 c 0.43,0.8 1.04,1.43 1.82,1.87 0.78,0.44 1.63,0.64 2.53,0.6 1.05,0 1.95,-0.26 2.7,-0.77 0.75,-0.51 1.13,-1.21 1.13,-2.1 0,-0.89 -0.84,-1.57 -2.53,-2.01 -0.31,-0.08 -0.83,-0.19 -1.57,-0.31 -0.51,-0.1 -0.88,-0.17 -1.08,-0.22 -1.28,-0.27 -2.27,-0.75 -2.99,-1.45 -0.72,-0.7 -1.08,-1.53 -1.08,-2.5 0,-1.17 0.53,-2.16 1.59,-2.96 1.06,-0.8 2.36,-1.2 3.91,-1.2 0.97,0 1.87,0.24 2.72,0.73 0.84,0.48 1.51,1.15 2.01,1.99 l -1.17,0.53 c -0.39,-0.62 -0.9,-1.1 -1.53,-1.45 -0.63,-0.35 -1.3,-0.53 -2.02,-0.53 -0.64,0 -1.26,0.15 -1.85,0.46 -0.6,0.31 -1.07,0.68 -1.4,1.13 -0.34,0.44 -0.51,0.88 -0.51,1.31 0,1.07 0.91,1.8 2.72,2.19 0.16,0.02 0.5,0.08 1.02,0.19 0.8,0.14 1.38,0.26 1.73,0.34 z"
         id="path157" />
      <path
         class="cls-1"
         d="m 838.32,659.13 c 0.2,-0.2 0.43,-0.29 0.71,-0.29 0.28,0 0.51,0.1 0.69,0.29 0.19,0.2 0.28,0.43 0.28,0.71 0,0.28 -0.09,0.51 -0.28,0.71 -0.19,0.2 -0.42,0.29 -0.69,0.29 -0.27,0 -0.51,-0.1 -0.71,-0.29 -0.2,-0.2 -0.29,-0.43 -0.29,-0.71 0,-0.28 0.1,-0.51 0.29,-0.71 z m 1.22,-2.3 h -1.02 l -0.4,-16.08 h 1.82 z"
         id="path159" />
    </g>
  </g>
</svg>
