<svg width="600" height="254" viewBox="0 0 600 254" fill="none" xmlns="http://www.w3.org/2000/svg">
<path d="M62.12 53.25C62.12 61.25 60.57 66.99 57.47 70.5C54.37 74 50.04 75.76 44.47 75.76C38.9 75.76 34.54 74.01 31.4 70.5C28.25 67 26.68 61.25 26.68 53.25V1.64001H0V54.05C0 67.97 3.88 78.75 11.66 86.39C19.43 94.03 30.28 97.84 44.2 97.84C58.12 97.84 68.88 94.02 76.74 86.39C84.6 78.76 88.53 67.98 88.53 54.05V1.64001H62.12V53.25Z" fill="#3F3F3F"/>
<path d="M168.23 48.07C165.04 46.05 161.56 44.43 157.79 43.22C154.02 42.01 150.22 41 146.4 40.19C142.58 39.38 139.1 38.6 135.96 37.83C132.81 37.07 130.25 36.08 128.28 34.87C126.3 33.66 125.32 31.97 125.32 29.82C125.32 28.38 125.81 27.04 126.8 25.78C127.79 24.52 129.4 23.49 131.65 22.68C133.89 21.87 136.86 21.47 140.54 21.47C144.67 21.47 148.94 22.06 153.34 23.22C157.74 24.39 162.19 26.23 166.68 28.74L174.76 9.07001C170.18 6.29001 164.9 4.19999 158.93 2.79999C152.96 1.40999 146.87 0.709991 140.67 0.709991C131.42 0.709991 123.69 2.10001 117.49 4.89001C111.29 7.68001 106.66 11.36 103.61 15.94C100.56 20.52 99.03 25.6 99.03 31.17C99.03 36.2 99.99 40.38 101.93 43.7C103.86 47.02 106.4 49.72 109.54 51.78C112.68 53.85 116.19 55.51 120.05 56.77C123.91 58.03 127.71 59.04 131.44 59.8C135.17 60.56 138.63 61.37 141.82 62.23C145.01 63.08 147.59 64.12 149.57 65.33C151.54 66.54 152.53 68.18 152.53 70.25C152.53 71.87 152.01 73.26 150.98 74.43C149.95 75.6 148.33 76.5 146.13 77.12C143.93 77.75 140.94 78.06 137.17 78.06C131.69 78.06 126.19 77.18 120.66 75.43C115.14 73.68 110.26 71.45 106.04 68.76L97.28 88.57C101.68 91.53 107.45 93.98 114.59 95.91C121.73 97.84 129.21 98.81 137.02 98.81C146.36 98.81 154.13 97.42 160.33 94.63C166.53 91.85 171.18 88.14 174.28 83.51C177.38 78.88 178.93 73.83 178.93 68.35C178.93 63.41 177.94 59.3 175.97 56.02C173.99 52.74 171.41 50.09 168.22 48.07H168.23Z" fill="#3F3F3F"/>
<path d="M229.34 2.59L187.7 96.91H214.92L222.33 78.45H262.22L269.63 96.91H297.39L255.62 2.59H229.35H229.34ZM230.17 58.91L242.27 28.75L254.37 58.91H230.16H230.17Z" fill="#3F3F3F"/>
<path d="M378.1 8.39001C370.19 4.53001 361.08 2.60001 350.75 2.60001H306.15V96.92H350.75C361.08 96.92 370.2 94.99 378.1 91.13C386 87.27 392.18 81.81 396.63 74.76C401.08 67.71 403.3 59.33 403.3 49.63C403.3 39.93 401.08 31.71 396.63 24.7C392.18 17.69 386.01 12.26 378.1 8.39999V8.39001ZM372.98 63.57C370.73 67.48 367.61 70.46 363.62 72.53C359.62 74.6 354.88 75.63 349.4 75.63H332.83V23.89H349.4C354.88 23.89 359.62 24.92 363.62 26.99C367.62 29.06 370.74 32 372.98 35.82C375.22 39.64 376.35 44.29 376.35 49.77C376.35 55.25 375.23 59.67 372.98 63.58V63.57Z" fill="#3F3F3F"/>
<path d="M597.04 56.02C595.06 52.74 592.48 50.09 589.29 48.07C586.1 46.05 582.62 44.43 578.85 43.22C575.08 42.01 571.28 41 567.46 40.19C563.64 39.38 560.16 38.6 557.02 37.83C553.87 37.07 551.31 36.08 549.34 34.87C547.36 33.66 546.38 31.97 546.38 29.82C546.38 28.38 546.87 27.04 547.86 25.78C548.85 24.52 550.46 23.49 552.71 22.68C554.95 21.87 557.92 21.47 561.6 21.47C565.73 21.47 570 22.06 574.4 23.22C578.8 24.39 583.25 26.23 587.74 28.74L595.82 9.07001C591.24 6.29001 585.96 4.19999 579.99 2.79999C574.02 1.40999 567.93 0.709991 561.73 0.709991C552.48 0.709991 544.75 2.10001 538.55 4.89001C532.35 7.68001 527.72 11.36 524.67 15.94C521.62 20.52 520.09 25.6 520.09 31.17C520.09 36.2 521.05 40.38 522.99 43.7C524.92 47.02 527.46 49.72 530.6 51.78C533.74 53.85 537.25 55.51 541.11 56.77C544.97 58.03 548.77 59.04 552.5 59.8C556.23 60.56 559.69 61.37 562.88 62.23C566.07 63.08 568.65 64.12 570.63 65.33C572.6 66.54 573.59 68.18 573.59 70.25C573.59 71.87 573.07 73.26 572.04 74.43C571.01 75.6 569.39 76.5 567.19 77.12C564.99 77.75 562 78.06 558.23 78.06C552.75 78.06 547.25 77.18 541.72 75.43C536.2 73.68 531.32 71.45 527.1 68.76L518.34 88.57C522.74 91.53 528.51 93.98 535.65 95.91C542.79 97.84 550.27 98.81 558.08 98.81C567.42 98.81 575.19 97.42 581.39 94.63C587.59 91.85 592.24 88.14 595.34 83.51C598.44 78.88 599.99 73.83 599.99 68.35C599.99 63.41 599 59.3 597.03 56.02H597.04Z" fill="#3F3F3F"/>
<path d="M497.58 69.7C498.4 68.35 498.07 66.87 497.01 67.12C495.84 67.39 494.71 69.59 495.5 70.61C496.17 71.24 497.12 70.46 497.58 69.7ZM434.71 83.4C434.25 83.23 433.99 83.43 434.18 83.83C434.26 83.99 434.37 84.11 434.44 84.19C434.94 84.66 435.38 84.72 435.54 84.65C435.92 84.47 435.38 83.66 434.71 83.41V83.4ZM438.93 68.43C437.91 68.6 437.52 70.09 438.52 71.26C439.45 72.18 440.38 71.86 440.74 71.34C441.54 70.18 440.31 68.2 438.93 68.43ZM446.79 87.78C445.83 87.15 444.33 87.23 444.44 87.9C444.47 88.1 444.63 88.25 444.73 88.35C445.43 88.92 446.39 89.02 446.84 88.92C447.49 88.77 447.47 88.23 446.79 87.78ZM448.04 39.92C446.5 40.17 445.51 42.16 446.71 43.53C447.8 44.54 449.11 43.96 449.68 43.22C450.85 41.73 449.81 39.62 448.04 39.91V39.92ZM503.05 33.32C503.06 33.19 503.05 33 503.02 32.8C502.86 31.87 502.22 30.68 501.99 31.03C501.8 31.32 502.03 32.64 502.59 33.38C502.95 33.8 503.03 33.48 503.05 33.32ZM491.86 29.88C492.47 28.79 491.08 27.08 489.87 27.45C489.08 27.69 488.89 28.78 489.83 29.78C490.78 30.65 491.59 30.36 491.86 29.88ZM479.22 55.99C477.7 56.31 476.91 58.31 478.2 59.74C479.4 60.84 480.74 60.25 481.31 59.49C482.51 57.87 481.15 55.58 479.23 55.99H479.22ZM492.78 84.16C491.97 84.03 489.55 86.13 489.86 86.68C489.86 86.69 489.88 86.71 489.89 86.72C490.28 86.94 491.35 86.21 491.93 85.69C492.78 84.94 493.17 84.22 492.77 84.16H492.78ZM467.04 30C468.19 30.97 469.51 30.6 470.08 30.04C471.22 28.91 470.17 27.14 468.38 27.16C466.82 27.18 465.81 28.74 467.04 30ZM495.74 82.1C495.49 82.88 494.92 83.7 494.19 84.51C494.43 84.28 494.67 84.06 494.91 83.83C498.98 79.76 502.2 75.17 504.58 70.28C503.98 70.97 503.24 72.08 502.62 73.06C500.52 76.38 499.46 78.04 495.75 82.1H495.74ZM496.64 54.66C498.02 54.3 499.86 53.76 501.21 53.29C507.44 51.14 508.43 58.37 508.49 58.97C511.82 43.44 507.59 26.76 495.71 14.88C476.89 -3.93998 446.02 -3.58998 426.76 15.67C407.5 34.93 407.15 65.8 425.97 84.62C443.83 102.48 472.53 103.06 491.87 86.63C489.53 88.4 486.98 89.52 486.72 88.62C486.22 86.9 492.16 81.82 494.6 81.42C495.75 81.23 499.72 75.75 501.35 73.27C502.45 71.56 504.93 67.7 506.23 66.52C506.83 64.97 507.36 63.39 507.8 61.8C507.7 61.15 507.28 60.08 505.59 57.6C504.5 56.27 503.44 56.09 501.41 56.88C498.24 58.12 494.97 59.4 485.26 60.15C483.29 65.73 476.03 66.05 473.83 60.66C471.64 55.28 476.61 49.94 481.77 52.13C483.43 52.84 484.61 54.14 485.28 56C490.06 55.69 490.25 55.68 492.58 55.37C486.44 48.82 480.72 42.92 471.18 33.77C464.94 35.65 461.04 30.23 463.13 26.71C465.63 22.49 473.38 23.69 474.33 28.45C474.6 29.78 474.24 30.62 473.9 31.43C480.7 37.91 488.16 45.2 496.67 54.65L496.64 54.66ZM508.19 43.19L508.24 43.45C508.19 43.22 508.13 42.97 508.08 42.71C508.12 42.87 508.16 43.02 508.19 43.19ZM501.24 28.7C501.53 28.68 501.86 29.12 502.12 29.47C502.27 29.7 502.45 30 502.58 30.24C503.05 31.09 503.24 32.06 503.7 32.92C504.66 34.7 506.05 36.21 506.83 38.09C506.9 38.27 506.98 38.52 507.04 38.71C507.32 39.65 507.62 40.81 507.89 41.9C507.48 40.43 506.73 38.84 504.12 35.29C503.95 37.24 502.83 35.98 502.61 35.71C500.77 33.45 500.28 28.78 501.24 28.7ZM486.44 26.74C487.38 23.92 491.97 24.19 493.85 27.97C494.53 29.33 494.44 30.43 494.39 31.02C505.97 43.13 508.74 48.39 509.03 50.67V53.01L508.99 54.09C508.51 49.21 496.73 36.75 493.13 33.05C489.39 34.82 485.46 29.62 486.42 26.74H486.44ZM452.33 94.21C449.31 93.31 447.25 92.85 443.61 91.26C440.18 89.67 439.29 88.77 436.07 85.75C433.58 84.94 432.09 82.56 433.24 81.96C434.66 81.21 437.77 84.15 437.44 85.3C437.4 85.43 437.28 85.57 437.22 85.68C438.74 87.1 439.1 87.43 440.81 88.91C441.69 89.61 443.16 90.78 450.54 92.98C448.9 91.76 448.61 91.54 447.06 90.29C442.65 89.57 440.69 87.14 442.62 85.98C445.09 84.5 451.04 87.09 450.29 89.31C450.16 89.71 449.76 89.93 449.48 90.09C451.77 91.95 454.14 93.86 457.17 95.6L458.67 96.48C455.08 95.93 454.39 95.5 452.33 94.2V94.21ZM469.72 96.57C469.72 96.57 469.72 96.57 469.71 96.57C469.05 96.65 468.39 96.57 467.77 96.37L467.6 96.31C462.86 94.42 453.43 86.52 441.91 74.74C436.8 76.09 433.91 69.56 435.99 66.41C436.89 65.06 439.77 63.51 442.96 67.37C444.01 69.04 444.58 70.6 443.92 72.78C461.15 90.28 470.02 96.31 472.38 96.15C472.38 96.15 470.38 96.49 469.71 96.58L469.72 96.57ZM487.2 78C488.8 76.39 490.9 74.22 492.4 72.52C491.31 67.21 496.69 62.13 499.21 63.66C502.31 65.54 499.37 73.38 495.23 74.28C494.89 74.35 494.42 74.33 494.07 74.28C490.42 78.34 490.13 78.67 487.45 81.05C484.08 84.13 482.8 88.68 479.66 91.92C480.78 92.62 481.21 92.85 481.95 93.11L479.81 94.04L479.59 94.12C478.58 94.42 476.22 95.13 456.3 76.01C449.87 77.46 446.17 70.99 448.47 67.25C451.12 62.94 458.63 65.14 459.63 70.52C459.92 72.06 459.51 72.96 459.12 73.82C464.96 79.46 471.47 85.69 477.68 90.49C479.07 88.6 479.66 87.92 480.42 86.14C481.32 84.19 482.29 82.83 484.24 80.76C471.59 68.76 457.78 54.78 450.68 47.52C444.74 50.06 441.24 44.52 443.02 40.14C445.04 35.17 451.52 34.45 453.68 38.95C454.82 41.33 453.98 43.46 453.58 44.49C471.45 62.49 482.31 73.21 487.2 78ZM453.08 68.94C451.64 69.07 450.95 70.71 452.22 72.09C453.4 73.16 454.68 72.84 455.22 72.27C456.4 71.02 454.96 68.78 453.08 68.95V68.94Z" fill="#92C045"/>
<path d="M21.4201 133.21C25.0101 129.66 29.2301 126.92 34.0901 124.99C38.9401 123.06 44.2001 122.09 49.8501 122.09C55.5001 122.09 60.2701 122.97 64.9401 124.72C69.6101 126.47 73.8801 129.32 77.7401 133.28L84.0701 126.95C79.9401 122.37 74.8601 118.93 68.8401 116.64C62.8201 114.35 56.4001 113.2 49.5701 113.2C42.7401 113.2 35.9101 114.39 29.9001 116.77C23.8801 119.15 18.6501 122.5 14.2001 126.81C9.7501 131.12 6.29011 136.2 3.82011 142.04C1.35011 147.88 0.110107 154.26 0.110107 161.17C0.110107 168.08 1.34011 174.47 3.82011 180.3C6.29011 186.14 9.73011 191.21 14.1301 195.53C18.5301 199.84 23.7401 203.19 29.7601 205.57C35.7801 207.95 42.3401 209.14 49.4301 209.14C56.5201 209.14 62.8101 207.97 68.8301 205.64C74.8501 203.31 79.9201 199.85 84.0601 195.27L77.7301 188.94C73.8701 192.89 69.6001 195.77 64.9301 197.56C60.2601 199.36 55.2301 200.25 49.8401 200.25C44.1801 200.25 38.9301 199.29 34.0801 197.35C29.2301 195.42 25.0101 192.68 21.4101 189.13C17.8201 185.58 15.0101 181.45 12.9901 176.73C10.9701 172.01 9.96011 166.83 9.96011 161.17C9.96011 155.51 10.9701 150.32 12.9901 145.61C15.0101 140.9 17.8201 136.76 21.4101 133.21H21.4201Z" fill="#3F3F3F"/>
<path d="M130.97 114.01L87.8501 208.33H98.2301L109.51 183.13H162.15L173.43 208.33H183.94L140.82 114.01H130.98H130.97ZM113.12 175.05L135.82 124.32L158.52 175.05H113.12Z" fill="#3F3F3F"/>
<path d="M264.43 120C256.84 116 248.01 114 237.95 114H199.55V208.32H237.95C248.01 208.32 256.83 206.32 264.43 202.32C272.02 198.32 277.93 192.78 282.15 185.68C286.37 178.59 288.48 170.41 288.48 161.16C288.48 151.91 286.37 143.73 282.15 136.64C277.93 129.55 272.02 124 264.43 120ZM273.53 181.17C270.11 186.96 265.33 191.5 259.18 194.78C253.03 198.06 245.77 199.7 237.42 199.7H209.53V122.63H237.42C245.77 122.63 253.03 124.27 259.18 127.55C265.33 130.83 270.12 135.34 273.53 141.09C276.94 146.84 278.65 153.53 278.65 161.17C278.65 168.81 276.94 175.39 273.53 181.18V181.17Z" fill="#3F3F3F"/>
<path d="M323.78 133.21C327.37 129.66 331.6 126.92 336.45 124.99C341.3 123.06 346.56 122.09 352.21 122.09C357.86 122.09 362.63 122.97 367.3 124.72C371.97 126.47 376.24 129.32 380.1 133.28L386.43 126.95C382.3 122.37 377.22 118.93 371.2 116.64C365.18 114.35 358.76 113.2 351.93 113.2C345.1 113.2 338.27 114.39 332.26 116.77C326.24 119.15 321.01 122.5 316.56 126.81C312.11 131.12 308.65 136.2 306.18 142.04C303.71 147.88 302.47 154.26 302.47 161.17C302.47 168.08 303.7 174.47 306.18 180.3C308.65 186.14 312.09 191.21 316.49 195.53C320.89 199.84 326.1 203.19 332.12 205.57C338.14 207.95 344.7 209.14 351.79 209.14C358.88 209.14 365.17 207.97 371.19 205.64C377.21 203.31 382.28 199.85 386.42 195.27L380.09 188.94C376.23 192.89 371.96 195.77 367.29 197.56C362.62 199.36 357.59 200.25 352.2 200.25C346.54 200.25 341.29 199.29 336.44 197.35C331.59 195.42 327.37 192.68 323.77 189.13C320.18 185.58 317.37 181.45 315.35 176.73C313.33 172.01 312.32 166.83 312.32 161.17C312.32 155.51 313.33 150.32 315.35 145.61C317.37 140.89 320.18 136.76 323.77 133.21H323.78Z" fill="#3F3F3F"/>
<path d="M433.33 114.01L390.21 208.33H400.59L411.87 183.13H464.51L475.79 208.33H486.3L443.18 114.01H433.34H433.33ZM415.48 175.05L438.18 124.32L460.88 175.05H415.48Z" fill="#3F3F3F"/>
<path d="M591.65 114.01L551.08 183.88L510.13 114.01H501.91V208.33H511.48V133.32L548.53 196.34H553.25L590.3 132.89V208.33H599.87V114.01H591.65Z" fill="#3F3F3F"/>
<path d="M13.12 233.6H14.94V248.36H13.12V245.86C12.11 247.03 10.85 247.82 9.34001 248.21C7.83001 248.6 6.34002 248.52 4.88002 247.98C3.42002 247.44 2.24002 246.52 1.35002 245.25C0.450021 243.97 0.0100098 242.55 0.0100098 240.99C0.0100098 239.43 0.460021 238.01 1.35002 236.73C2.24002 235.45 3.42002 234.54 4.88002 234C6.34002 233.45 7.83001 233.38 9.34001 233.77C10.85 234.16 12.11 234.95 13.12 236.15V233.62V233.6ZM3.50002 245.28C4.62002 246.55 5.94002 247.18 7.47002 247.18C9.00002 247.18 10.31 246.55 11.44 245.28C12.56 244.01 13.12 242.58 13.12 240.99C13.12 239.4 12.56 237.97 11.44 236.71C10.32 235.45 9.00002 234.83 7.47002 234.83C5.94002 234.83 4.62002 235.46 3.50002 236.71C2.38002 237.97 1.82002 239.39 1.82002 240.99C1.82002 242.59 2.38002 244.02 3.50002 245.28Z" fill="#3F3F3F"/>
<path d="M42.1701 233.63H43.9901V253.94H42.1701V245.85C41.1601 247.02 39.9001 247.81 38.3901 248.2C36.8801 248.59 35.3901 248.52 33.9301 247.98C32.4701 247.44 31.2901 246.53 30.4001 245.25C29.5001 243.96 29.0601 242.54 29.0601 240.97C29.0601 239.4 29.5101 237.99 30.4001 236.71C31.2901 235.43 32.4701 234.52 33.9301 233.98C35.3901 233.43 36.8801 233.36 38.3901 233.75C39.9001 234.14 41.1601 234.93 42.1701 236.13V233.63ZM32.55 245.24C33.67 246.5 34.9901 247.12 36.5201 247.12C38.0501 247.12 39.3601 246.49 40.4901 245.24C41.6101 243.99 42.1701 242.57 42.1701 240.98C42.1701 239.39 41.6101 237.97 40.4901 236.69C39.3701 235.41 38.0501 234.78 36.5201 234.78C34.9901 234.78 33.67 235.42 32.55 236.69C31.43 237.97 30.8701 239.4 30.8701 240.98C30.8701 242.56 31.43 243.98 32.55 245.24Z" fill="#3F3F3F"/>
<path d="M69.4601 233.66H71.2801V248.35H69.4601V245.88C68.9001 246.52 68.2701 247.03 67.5501 247.42C67.1601 247.63 66.7501 247.8 66.3201 247.95C65.5001 248.22 64.6401 248.35 63.7601 248.35C62.5301 248.39 61.4201 248.01 60.4601 247.21C60.3601 247.13 60.2501 247.04 60.1501 246.93C59.0401 245.65 58.5301 244.16 58.6401 242.45V233.65H60.4601V242.45C60.3601 243.66 60.7001 244.74 61.4801 245.69C62.1401 246.31 62.9201 246.65 63.8301 246.71C65.2701 246.85 66.5701 246.54 67.7201 245.75C68.8701 244.97 69.4601 243.87 69.4801 242.45V233.65L69.4601 233.66Z" fill="#3F3F3F"/>
<path d="M87.6401 230.99C87.4501 231.17 87.2401 231.25 86.9901 231.25C86.7401 231.25 86.5301 231.16 86.3601 230.99C86.1901 230.82 86.1001 230.6 86.1001 230.36C86.1001 230.12 86.1901 229.9 86.3601 229.73C86.5301 229.56 86.7501 229.47 86.9901 229.47C87.2301 229.47 87.4501 229.56 87.6401 229.73C87.8301 229.9 87.9201 230.12 87.9201 230.36C87.9201 230.6 87.8301 230.82 87.6401 230.99ZM87.9201 248.35H86.1001V233.63H87.9201V248.35Z" fill="#3F3F3F"/>
<path d="M127.83 240.45C128.57 240.66 129.2 240.91 129.71 241.21C130.22 241.51 130.62 241.83 130.88 242.18C131.15 242.53 131.33 242.87 131.44 243.2C131.54 243.53 131.59 243.87 131.59 244.22C131.59 245.37 131.06 246.35 130 247.15C128.94 247.95 127.65 248.35 126.13 248.35C124.75 248.35 123.52 248.02 122.43 247.35C121.34 246.68 120.69 245.85 120.49 244.87L121.72 244.62C122.15 245.42 122.76 246.05 123.54 246.49C124.32 246.93 125.17 247.13 126.07 247.09C127.12 247.09 128.02 246.83 128.77 246.32C129.52 245.81 129.9 245.11 129.9 244.22C129.9 243.33 129.06 242.65 127.37 242.21C127.06 242.13 126.54 242.02 125.8 241.9C125.29 241.8 124.93 241.73 124.72 241.68C123.44 241.41 122.45 240.93 121.73 240.23C121.01 239.53 120.65 238.7 120.65 237.73C120.65 236.56 121.18 235.57 122.24 234.77C123.3 233.97 124.6 233.57 126.14 233.57C127.11 233.57 128.01 233.81 128.86 234.3C129.7 234.78 130.37 235.45 130.87 236.29L129.7 236.82C129.31 236.2 128.8 235.72 128.17 235.37C127.54 235.02 126.87 234.84 126.15 234.84C125.51 234.84 124.89 234.99 124.3 235.3C123.7 235.61 123.24 235.98 122.9 236.43C122.56 236.87 122.39 237.31 122.39 237.74C122.39 238.81 123.3 239.54 125.11 239.93C125.27 239.95 125.61 240.01 126.13 240.12C126.93 240.26 127.51 240.38 127.86 240.46L127.83 240.45Z" fill="#3F3F3F"/>
<path d="M152.34 247.18C153.02 247.14 153.67 246.98 154.3 246.72C154.93 246.45 155.49 246.09 155.98 245.62C156.47 245.15 156.88 244.62 157.18 244L159.03 244.25C158.43 245.44 157.58 246.42 156.47 247.17C155.36 247.92 154.14 248.34 152.81 248.42C151.48 248.5 150.22 248.25 149.01 247.66C147.8 247.07 146.83 246.22 146.09 245.11C145.86 244.74 145.66 244.35 145.47 243.94C144.67 242.11 144.62 240.25 145.33 238.37C146.04 236.49 147.3 235.11 149.11 234.25C150.92 233.39 152.78 233.28 154.7 233.93C156.61 234.58 158.02 235.79 158.93 237.56C159.01 237.72 159.08 237.88 159.15 238.02C159.27 238.27 159.38 238.52 159.46 238.79L147.7 244.38C148.17 245.22 148.82 245.89 149.65 246.39C150.47 246.88 151.37 247.15 152.34 247.19V247.18ZM147.12 243.17L157.34 238.32C156.91 237.31 156.24 236.49 155.33 235.85C154.42 235.21 153.43 234.87 152.34 234.83C150.82 234.83 149.49 235.46 148.37 236.71C147.25 237.97 146.69 239.39 146.69 240.97C146.69 241.73 146.83 242.46 147.12 243.16V243.17Z" fill="#3F3F3F"/>
<path d="M183.95 233.66H185.77V248.35H183.95V245.88C183.39 246.52 182.76 247.03 182.04 247.42C181.65 247.63 181.24 247.8 180.81 247.95C179.99 248.22 179.13 248.35 178.25 248.35C177.02 248.39 175.91 248.01 174.95 247.21C174.85 247.13 174.74 247.04 174.64 246.93C173.53 245.65 173.02 244.16 173.13 242.45V233.65H174.95V242.45C174.85 243.66 175.19 244.74 175.97 245.69C176.63 246.31 177.41 246.65 178.32 246.71C179.76 246.85 181.06 246.54 182.21 245.75C183.36 244.97 183.95 243.87 183.97 242.45V233.65L183.95 233.66Z" fill="#3F3F3F"/>
<path d="M229.66 233.66H231.48V248.35H229.66V245.88C229.1 246.52 228.47 247.03 227.75 247.42C227.36 247.63 226.95 247.8 226.52 247.95C225.7 248.22 224.84 248.35 223.96 248.35C222.73 248.39 221.62 248.01 220.66 247.21C220.56 247.13 220.45 247.04 220.35 246.93C219.24 245.65 218.73 244.16 218.84 242.45V233.65H220.66V242.45C220.56 243.66 220.9 244.74 221.68 245.69C222.34 246.31 223.12 246.65 224.03 246.71C225.47 246.85 226.77 246.54 227.92 245.75C229.07 244.97 229.66 243.87 229.68 242.45V233.65L229.66 233.66Z" fill="#3F3F3F"/>
<path d="M252.94 240.45C253.68 240.66 254.31 240.91 254.82 241.21C255.33 241.51 255.73 241.83 255.99 242.18C256.26 242.53 256.44 242.87 256.55 243.2C256.65 243.53 256.7 243.87 256.7 244.22C256.7 245.37 256.17 246.35 255.11 247.15C254.05 247.95 252.76 248.35 251.24 248.35C249.86 248.35 248.63 248.02 247.54 247.35C246.45 246.68 245.8 245.85 245.59 244.87L246.82 244.62C247.25 245.42 247.86 246.05 248.64 246.49C249.42 246.93 250.27 247.13 251.17 247.09C252.22 247.09 253.12 246.83 253.87 246.32C254.62 245.81 255 245.11 255 244.22C255 243.33 254.16 242.65 252.47 242.21C252.16 242.13 251.64 242.02 250.9 241.9C250.39 241.8 250.02 241.73 249.82 241.68C248.54 241.41 247.55 240.93 246.83 240.23C246.11 239.53 245.75 238.7 245.75 237.73C245.75 236.56 246.28 235.57 247.34 234.77C248.4 233.97 249.7 233.57 251.25 233.57C252.22 233.57 253.12 233.81 253.97 234.3C254.81 234.78 255.48 235.45 255.98 236.29L254.81 236.82C254.42 236.2 253.91 235.72 253.28 235.37C252.65 235.02 251.98 234.84 251.26 234.84C250.62 234.84 250 234.99 249.41 235.3C248.81 235.61 248.34 235.98 248.01 236.43C247.67 236.87 247.5 237.31 247.5 237.74C247.5 238.81 248.41 239.54 250.22 239.93C250.38 239.95 250.72 240.01 251.24 240.12C252.04 240.26 252.62 240.38 252.97 240.46L252.94 240.45Z" fill="#3F3F3F"/>
<path d="M283.1 233.6H284.92V248.36H283.1V245.86C282.09 247.03 280.83 247.82 279.32 248.21C277.81 248.6 276.32 248.52 274.86 247.98C273.4 247.44 272.22 246.52 271.33 245.25C270.44 243.97 269.99 242.55 269.99 240.99C269.99 239.43 270.44 238.01 271.33 236.73C272.23 235.45 273.4 234.54 274.86 234C276.32 233.46 277.81 233.38 279.32 233.77C280.83 234.16 282.09 234.95 283.1 236.15V233.62V233.6ZM273.48 245.28C274.6 246.55 275.92 247.18 277.45 247.18C278.98 247.18 280.3 246.55 281.42 245.28C282.54 244.01 283.1 242.58 283.1 240.99C283.1 239.4 282.54 237.97 281.42 236.71C280.3 235.45 278.98 234.83 277.45 234.83C275.92 234.83 274.6 235.46 273.48 236.71C272.36 237.96 271.8 239.39 271.8 240.99C271.8 242.59 272.36 244.02 273.48 245.28Z" fill="#3F3F3F"/>
<path d="M313.97 228.01V248.35H312.15V245.85C311.14 247.02 309.88 247.81 308.37 248.2C306.86 248.59 305.37 248.52 303.91 247.98C302.45 247.44 301.27 246.53 300.38 245.25C299.49 243.96 299.04 242.54 299.04 240.99C299.04 239.44 299.49 238.02 300.38 236.73C301.28 235.44 302.45 234.53 303.91 233.98C305.37 233.43 306.86 233.36 308.37 233.75C309.88 234.14 311.14 234.93 312.15 236.13V228.01H313.97ZM310.47 245.28C311.59 244.01 312.15 242.58 312.15 240.99C312.15 239.4 311.59 237.97 310.47 236.71C309.35 235.45 308.03 234.83 306.5 234.83C304.97 234.83 303.65 235.46 302.53 236.71C301.41 237.96 300.85 239.39 300.85 240.99C300.85 242.59 301.41 244.02 302.53 245.28C303.65 246.54 304.97 247.18 306.5 247.18C308.03 247.18 309.35 246.55 310.47 245.28Z" fill="#3F3F3F"/>
<path d="M330.27 235.71C331.73 234.26 333.49 233.53 335.55 233.53C337.61 233.53 339.36 234.26 340.81 235.71C342.26 237.16 342.99 238.92 342.99 240.97C342.99 243.02 342.26 244.79 340.81 246.25C339.36 247.71 337.6 248.44 335.55 248.44C333.5 248.44 331.73 247.71 330.27 246.25C328.81 244.79 328.08 243.03 328.08 240.97C328.08 238.91 328.81 237.16 330.27 235.71ZM331.57 245.28C332.68 246.55 334 247.18 335.54 247.18C337.08 247.18 338.4 246.55 339.52 245.28C340.64 244.01 341.2 242.58 341.2 240.97C341.2 239.36 340.64 237.97 339.52 236.71C338.4 235.45 337.07 234.83 335.54 234.83C334.01 234.83 332.68 235.46 331.57 236.71C330.46 237.97 329.9 239.39 329.9 240.99C329.9 242.59 330.46 244.02 331.57 245.28Z" fill="#3F3F3F"/>
<path d="M388.52 233.6H390L383.09 248.36H380.99L374.08 233.6H376.09L382.3 246.9L388.54 233.6H388.52Z" fill="#3F3F3F"/>
<path d="M415.06 233.6H416.88V248.36H415.06V245.86C414.05 247.03 412.79 247.82 411.28 248.21C409.77 248.6 408.28 248.52 406.82 247.98C405.36 247.44 404.18 246.52 403.29 245.25C402.4 243.97 401.95 242.55 401.95 240.99C401.95 239.43 402.4 238.01 403.29 236.73C404.19 235.45 405.36 234.54 406.82 234C408.28 233.46 409.77 233.38 411.28 233.77C412.79 234.16 414.05 234.95 415.06 236.15V233.62V233.6ZM405.44 245.28C406.56 246.55 407.88 247.18 409.41 247.18C410.94 247.18 412.26 246.55 413.38 245.28C414.5 244.01 415.06 242.58 415.06 240.99C415.06 239.4 414.5 237.97 413.38 236.71C412.26 235.45 410.94 234.83 409.41 234.83C407.88 234.83 406.56 235.46 405.44 236.71C404.32 237.96 403.76 239.39 403.76 240.99C403.76 242.59 404.32 244.02 405.44 245.28Z" fill="#3F3F3F"/>
<path d="M433.55 248.35H431.73V228.01H433.55V248.35Z" fill="#3F3F3F"/>
<path d="M455.1 247.18C455.78 247.14 456.43 246.98 457.06 246.72C457.69 246.45 458.25 246.09 458.74 245.62C459.23 245.15 459.63 244.62 459.94 244L461.79 244.25C461.19 245.44 460.34 246.42 459.23 247.17C458.12 247.92 456.9 248.34 455.57 248.42C454.24 248.5 452.98 248.25 451.77 247.66C450.56 247.07 449.59 246.22 448.85 245.11C448.62 244.74 448.42 244.35 448.23 243.94C447.43 242.11 447.38 240.25 448.09 238.37C448.8 236.49 450.06 235.11 451.87 234.25C453.68 233.39 455.54 233.28 457.46 233.93C459.37 234.58 460.78 235.79 461.69 237.56C461.77 237.72 461.84 237.88 461.91 238.02C462.03 238.27 462.14 238.52 462.22 238.79L450.46 244.38C450.93 245.22 451.58 245.89 452.41 246.39C453.23 246.88 454.13 247.15 455.1 247.19V247.18ZM449.88 243.17L460.1 238.32C459.67 237.31 459 236.49 458.09 235.85C457.18 235.21 456.19 234.87 455.1 234.83C453.58 234.83 452.25 235.46 451.13 236.71C450.01 237.96 449.45 239.39 449.45 240.97C449.45 241.73 449.59 242.46 449.88 243.16V243.17Z" fill="#3F3F3F"/>
<path d="M511.75 234.59C512.8 235.66 513.3 236.95 513.26 238.45V248.36H511.47V238.45C511.47 238.26 511.45 238.05 511.41 237.82C511.37 237.58 511.29 237.27 511.16 236.88C511.04 236.49 510.81 236.16 510.48 235.89C510.15 235.62 509.75 235.49 509.28 235.49C508.05 235.43 506.99 235.82 506.1 236.68C505.21 237.53 504.79 238.58 504.83 239.81V248.36H503.01V238.45C503.01 238.33 503 238.18 502.98 238.02C502.96 237.86 502.91 237.61 502.83 237.29C502.75 236.97 502.64 236.69 502.51 236.44C502.38 236.19 502.16 235.97 501.86 235.78C501.56 235.58 501.22 235.49 500.83 235.49C499.62 235.43 498.57 235.82 497.68 236.66C496.8 237.5 496.36 238.54 496.38 239.78V248.36H494.56V233.64H496.38V236.17C496.89 235.43 497.54 234.84 498.32 234.41C499.1 233.98 499.94 233.73 500.82 233.67C501.77 233.65 502.59 233.96 503.29 234.6C503.87 235.14 504.27 235.79 504.49 236.58C504.65 236.35 504.77 236.21 504.83 236.15C505.08 235.8 505.37 235.48 505.69 235.18C506.02 234.88 506.37 234.63 506.75 234.42C507.13 234.21 507.53 234.05 507.95 233.93C508.37 233.81 508.81 233.72 509.26 233.68C510.21 233.66 511.03 233.97 511.73 234.61L511.75 234.59Z" fill="#3F3F3F"/>
<path d="M540.33 233.6H542.15V248.36H540.33V245.86C539.32 247.03 538.06 247.82 536.55 248.21C535.04 248.6 533.55 248.52 532.09 247.98C530.63 247.44 529.45 246.52 528.56 245.25C527.67 243.97 527.22 242.55 527.22 240.99C527.22 239.43 527.67 238.01 528.56 236.73C529.46 235.45 530.63 234.54 532.09 234C533.55 233.46 535.04 233.38 536.55 233.77C538.06 234.16 539.32 234.95 540.33 236.15V233.62V233.6ZM530.71 245.28C531.83 246.55 533.15 247.18 534.68 247.18C536.21 247.18 537.53 246.55 538.65 245.28C539.77 244.01 540.33 242.58 540.33 240.99C540.33 239.4 539.77 237.97 538.65 236.71C537.53 235.45 536.21 234.83 534.68 234.83C533.15 234.83 531.83 235.46 530.71 236.71C529.59 237.96 529.03 239.39 529.03 240.99C529.03 242.59 529.59 244.02 530.71 245.28Z" fill="#3F3F3F"/>
<path d="M558.54 230.99C558.36 231.17 558.14 231.25 557.89 231.25C557.64 231.25 557.43 231.16 557.26 230.99C557.08 230.82 557 230.6 557 230.36C557 230.12 557.09 229.9 557.26 229.73C557.43 229.56 557.65 229.47 557.89 229.47C558.13 229.47 558.35 229.56 558.54 229.73C558.73 229.9 558.82 230.12 558.82 230.36C558.82 230.6 558.73 230.82 558.54 230.99ZM558.82 248.35H557V233.63H558.82V248.35Z" fill="#3F3F3F"/>
<path d="M580.27 240.45C581.01 240.66 581.64 240.91 582.15 241.21C582.66 241.51 583.06 241.83 583.32 242.18C583.59 242.53 583.77 242.87 583.88 243.2C583.98 243.53 584.03 243.87 584.03 244.22C584.03 245.37 583.5 246.35 582.44 247.15C581.38 247.95 580.09 248.35 578.57 248.35C577.19 248.35 575.96 248.02 574.87 247.35C573.78 246.68 573.13 245.85 572.92 244.87L574.15 244.62C574.58 245.42 575.19 246.05 575.97 246.49C576.75 246.93 577.6 247.13 578.5 247.09C579.55 247.09 580.45 246.83 581.2 246.32C581.95 245.81 582.33 245.11 582.33 244.22C582.33 243.33 581.49 242.65 579.8 242.21C579.49 242.13 578.97 242.02 578.23 241.9C577.72 241.8 577.35 241.73 577.15 241.68C575.87 241.41 574.88 240.93 574.16 240.23C573.44 239.53 573.08 238.7 573.08 237.73C573.08 236.56 573.61 235.57 574.67 234.77C575.73 233.97 577.03 233.57 578.58 233.57C579.55 233.57 580.45 233.81 581.3 234.3C582.14 234.78 582.81 235.45 583.31 236.29L582.14 236.82C581.75 236.2 581.24 235.72 580.61 235.37C579.98 235.02 579.31 234.84 578.59 234.84C577.95 234.84 577.33 234.99 576.74 235.3C576.14 235.61 575.67 235.98 575.34 236.43C575 236.87 574.83 237.31 574.83 237.74C574.83 238.81 575.74 239.54 577.55 239.93C577.71 239.95 578.05 240.01 578.57 240.12C579.37 240.26 579.95 240.38 580.3 240.46L580.27 240.45Z" fill="#3F3F3F"/>
<path d="M598.32 246.46C598.52 246.26 598.75 246.17 599.03 246.17C599.31 246.17 599.54 246.27 599.72 246.46C599.91 246.66 600 246.89 600 247.17C600 247.45 599.91 247.68 599.72 247.88C599.53 248.08 599.3 248.17 599.03 248.17C598.76 248.17 598.52 248.07 598.32 247.88C598.12 247.68 598.03 247.45 598.03 247.17C598.03 246.89 598.13 246.66 598.32 246.46ZM599.54 244.16H598.52L598.12 228.08H599.94L599.54 244.16Z" fill="#3F3F3F"/>
</svg>
