<svg width="684" height="104" viewBox="0 0 684 104" fill="none" xmlns="http://www.w3.org/2000/svg">
<path d="M34.51 29.21C34.51 33.65 33.65 36.85 31.93 38.79C30.21 40.74 27.8 41.71 24.71 41.71C21.62 41.71 19.19 40.74 17.45 38.79C15.7 36.84 14.83 33.65 14.83 29.21V0.540009H0.0100098V29.66C0.0100098 37.4 2.17002 43.39 6.49002 47.63C10.81 51.87 16.83 53.99 24.57 53.99C32.31 53.99 38.28 51.87 42.65 47.63C47.02 43.39 49.2 37.4 49.2 29.66V0.540009H34.53V29.21H34.51Z" fill="white"/>
<path d="M93.47 26.33C91.7 25.21 89.76 24.31 87.67 23.63C85.58 22.95 83.46 22.39 81.34 21.95C79.22 21.5 77.28 21.06 75.54 20.64C73.79 20.22 72.37 19.67 71.27 18.99C70.17 18.32 69.62 17.38 69.62 16.18C69.62 15.38 69.89 14.63 70.44 13.93C70.99 13.23 71.89 12.66 73.14 12.21C74.39 11.76 76.03 11.54 78.08 11.54C80.38 11.54 82.75 11.87 85.19 12.51C87.63 13.16 90.11 14.18 92.6 15.58L97.09 4.64999C94.54 3.09999 91.61 1.93998 88.29 1.16998C84.97 0.399983 81.59 0.0100098 78.15 0.0100098C73.01 0.0100098 68.72 0.779987 65.27 2.32999C61.83 3.87999 59.26 5.92 57.56 8.47C55.86 11.02 55.01 13.84 55.01 16.93C55.01 19.73 55.55 22.05 56.62 23.89C57.69 25.74 59.1 27.23 60.85 28.38C62.6 29.53 64.54 30.45 66.69 31.15C68.84 31.85 70.94 32.41 73.02 32.83C75.09 33.25 77.01 33.7 78.78 34.18C80.55 34.65 81.99 35.23 83.08 35.9C84.18 36.57 84.73 37.49 84.73 38.63C84.73 39.53 84.44 40.3 83.87 40.95C83.3 41.6 82.4 42.1 81.17 42.45C79.95 42.8 78.29 42.97 76.19 42.97C73.15 42.97 70.09 42.48 67.02 41.51C63.95 40.54 61.24 39.3 58.9 37.8L54.03 48.81C56.47 50.46 59.68 51.82 63.65 52.89C67.62 53.96 71.77 54.5 76.11 54.5C81.3 54.5 85.62 53.73 89.06 52.18C92.5 50.63 95.09 48.57 96.81 46C98.53 43.43 99.39 40.62 99.39 37.58C99.39 34.84 98.84 32.55 97.74 30.73C96.64 28.91 95.21 27.44 93.44 26.31L93.47 26.33Z" fill="white"/>
<path d="M127.43 1.06L104.3 53.46H119.42L123.54 43.2H145.7L149.82 53.46H165.24L142.03 1.06H127.43ZM127.89 32.35L134.61 15.59L141.33 32.35H127.88H127.89Z" fill="white"/>
<path d="M210.08 4.28C205.69 2.13 200.62 1.06 194.88 1.06H170.1V53.46H194.88C200.62 53.46 205.69 52.39 210.08 50.24C214.47 48.09 217.9 45.06 220.37 41.14C222.84 37.22 224.08 32.57 224.08 27.18C224.08 21.79 222.84 17.22 220.37 13.33C217.9 9.43999 214.47 6.41999 210.08 4.26999V4.28ZM207.24 34.94C205.99 37.11 204.26 38.77 202.04 39.92C199.82 41.07 197.19 41.64 194.14 41.64H184.93V12.89H194.14C197.18 12.89 199.82 13.46 202.04 14.61C204.26 15.76 205.99 17.39 207.24 19.51C208.49 21.63 209.11 24.21 209.11 27.26C209.11 30.31 208.49 32.76 207.24 34.93V34.94Z" fill="white"/>
<path d="M331.72 30.74C330.62 28.92 329.19 27.45 327.42 26.32C325.65 25.2 323.71 24.3 321.62 23.62C319.53 22.94 317.41 22.38 315.29 21.94C313.17 21.49 311.23 21.05 309.49 20.63C307.74 20.21 306.32 19.66 305.22 18.98C304.12 18.31 303.57 17.37 303.57 16.17C303.57 15.37 303.84 14.62 304.39 13.92C304.94 13.22 305.84 12.65 307.09 12.2C308.34 11.75 309.98 11.53 312.03 11.53C314.33 11.53 316.7 11.86 319.14 12.5C321.58 13.15 324.06 14.17 326.55 15.57L331.04 4.63998C328.49 3.08998 325.56 1.93 322.24 1.16C318.92 0.390004 315.54 0 312.1 0C306.96 0 302.67 0.770007 299.22 2.32001C295.78 3.87001 293.21 5.90999 291.51 8.45999C289.81 11.01 288.96 13.83 288.96 16.92C288.96 19.72 289.5 22.04 290.57 23.88C291.64 25.73 293.05 27.22 294.8 28.37C296.55 29.52 298.49 30.44 300.64 31.14C302.79 31.84 304.89 32.4 306.97 32.82C309.04 33.24 310.96 33.69 312.73 34.17C314.5 34.64 315.94 35.22 317.03 35.89C318.13 36.56 318.68 37.48 318.68 38.62C318.68 39.52 318.39 40.29 317.82 40.94C317.25 41.59 316.35 42.09 315.12 42.44C313.9 42.79 312.24 42.96 310.14 42.96C307.1 42.96 304.04 42.47 300.97 41.5C297.9 40.53 295.19 39.29 292.85 37.79L287.98 48.8C290.42 50.45 293.63 51.81 297.6 52.88C301.57 53.95 305.72 54.49 310.06 54.49C315.25 54.49 319.57 53.72 323.01 52.17C326.45 50.62 329.04 48.56 330.76 45.99C332.48 43.42 333.34 40.61 333.34 37.57C333.34 34.83 332.79 32.54 331.69 30.72L331.72 30.74Z" fill="white"/>
<path d="M279.5 18.14C279.5 18.07 279.5 17.96 279.48 17.85C279.39 17.34 279.04 16.67 278.91 16.87C278.8 17.03 278.93 17.76 279.24 18.18C279.44 18.41 279.49 18.23 279.5 18.15V18.14ZM243.87 37.64C243.3 37.74 243.09 38.56 243.64 39.21C244.16 39.72 244.67 39.54 244.87 39.26C245.32 38.62 244.63 37.51 243.86 37.64H243.87ZM276.46 38.35C276.91 37.6 276.73 36.78 276.14 36.91C275.49 37.06 274.86 38.28 275.3 38.85C275.67 39.2 276.2 38.77 276.45 38.35H276.46ZM248.93 21.81C248.07 21.95 247.53 23.05 248.19 23.82C248.8 24.38 249.52 24.06 249.84 23.65C250.49 22.82 249.91 21.65 248.93 21.81ZM241.52 45.97C241.26 45.87 241.12 45.99 241.22 46.21C241.26 46.3 241.33 46.37 241.37 46.41C241.65 46.67 241.89 46.71 241.98 46.66C242.19 46.56 241.89 46.11 241.52 45.97ZM273.27 16.23C273.61 15.62 272.84 14.68 272.17 14.88C271.73 15.01 271.62 15.62 272.15 16.18C272.68 16.66 273.13 16.5 273.28 16.24L273.27 16.23ZM248.23 48.4C247.69 48.05 246.86 48.09 246.92 48.47C246.94 48.58 247.03 48.66 247.08 48.72C247.47 49.04 248 49.09 248.25 49.04C248.61 48.96 248.6 48.65 248.22 48.41L248.23 48.4ZM251.72 37.93C250.92 38 250.54 38.92 251.24 39.68C251.89 40.28 252.61 40.1 252.91 39.78C253.57 39.08 252.77 37.84 251.72 37.93ZM259.48 16.29C260.12 16.83 260.85 16.63 261.17 16.31C261.8 15.68 261.22 14.7 260.23 14.71C259.36 14.72 258.8 15.59 259.48 16.29ZM266.25 30.73C265.41 30.91 264.97 32.02 265.68 32.81C266.35 33.42 267.09 33.1 267.41 32.67C268.08 31.77 267.32 30.5 266.25 30.72V30.73ZM275.43 45.24C275.29 45.67 274.97 46.13 274.57 46.58C274.7 46.45 274.84 46.33 274.97 46.2C277.23 43.94 279.02 41.39 280.34 38.67C280.01 39.05 279.59 39.67 279.25 40.21C278.08 42.05 277.5 42.98 275.43 45.24ZM275.93 29.99C276.7 29.79 277.72 29.49 278.47 29.23C281.98 28.02 282.49 32.15 282.51 32.39C284.36 23.76 282.01 14.49 275.41 7.88997C264.95 -2.57003 247.8 -2.37003 237.1 8.32997C226.4 19.03 226.2 36.18 236.66 46.64C246.58 56.56 262.53 56.89 273.27 47.76C271.97 48.75 270.55 49.37 270.41 48.87C270.13 47.91 273.43 45.09 274.79 44.87C275.43 44.77 277.63 41.72 278.54 40.34C279.15 39.39 280.52 37.26 281.25 36.61C281.59 35.74 281.88 34.86 282.13 33.97C282.07 33.61 281.84 33.01 280.9 31.64C280.29 30.9 279.71 30.8 278.58 31.24C276.82 31.93 275 32.64 269.61 33.06C268.51 36.16 264.48 36.34 263.26 33.34C262.04 30.35 264.81 27.38 267.67 28.6C268.59 28.99 269.25 29.72 269.62 30.75C272.28 30.58 272.38 30.57 273.67 30.4C270.26 26.76 267.08 23.48 261.78 18.4C258.32 19.44 256.15 16.44 257.31 14.48C258.7 12.13 263 12.8 263.53 15.45C263.68 16.19 263.48 16.65 263.29 17.1C267.07 20.7 271.21 24.75 275.94 30L275.93 29.99ZM278.48 15.56C278.64 15.55 278.82 15.79 278.97 15.99C279.05 16.12 279.16 16.29 279.23 16.42C279.49 16.89 279.6 17.43 279.85 17.91C280.38 18.9 281.16 19.74 281.59 20.78C281.63 20.88 281.68 21.02 281.71 21.12C281.87 21.64 282.03 22.29 282.18 22.89C282.24 23.13 282.29 23.36 282.35 23.61L282.38 23.75C282.32 23.49 282.26 23.19 282.18 22.89C281.95 22.07 281.54 21.19 280.08 19.22C279.98 20.3 279.37 19.6 279.24 19.45C278.22 18.2 277.95 15.6 278.48 15.55V15.56ZM270.26 14.47C270.78 12.91 273.33 13.05 274.38 15.15C274.76 15.91 274.71 16.52 274.68 16.84C281.11 23.57 282.65 26.49 282.82 27.76V29.06L282.8 29.66C282.54 26.95 275.99 20.03 273.99 17.97C271.91 18.95 269.73 16.06 270.26 14.47ZM251.31 51.96C249.63 51.46 248.49 51.2 246.47 50.32C244.57 49.44 244.07 48.93 242.28 47.26C240.9 46.81 240.07 45.49 240.71 45.15C241.5 44.73 243.23 46.36 243.04 47C243.02 47.07 242.95 47.15 242.92 47.21C243.76 48 243.96 48.18 244.91 49C245.4 49.39 246.22 50.04 250.32 51.26C249.41 50.58 249.25 50.46 248.39 49.76C245.94 49.36 244.85 48.01 245.93 47.37C247.3 46.55 250.61 47.99 250.19 49.22C250.12 49.44 249.9 49.56 249.74 49.65C251.01 50.68 252.33 51.75 254.01 52.71L254.85 53.2C252.86 52.89 252.47 52.66 251.33 51.93L251.31 51.96ZM260.97 53.27C260.61 53.31 260.24 53.27 259.89 53.16L259.79 53.13C257.15 52.08 251.92 47.69 245.52 41.14C242.68 41.89 241.07 38.26 242.23 36.51C242.73 35.76 244.33 34.9 246.1 37.04C246.69 37.97 247 38.84 246.63 40.04C256.2 49.76 261.13 53.11 262.44 53.03C262.44 53.03 261.33 53.22 260.96 53.27H260.97ZM270.68 42.95C271.57 42.06 272.73 40.85 273.57 39.91C272.96 36.96 275.95 34.14 277.35 34.99C279.07 36.03 277.44 40.39 275.14 40.89C274.95 40.93 274.69 40.92 274.5 40.89C272.47 43.14 272.31 43.33 270.82 44.65C268.95 46.36 268.24 48.89 266.49 50.69C267.11 51.08 267.35 51.21 267.76 51.35L266.57 51.86L266.45 51.9C265.89 52.07 264.58 52.46 253.51 41.84C249.94 42.65 247.88 39.05 249.16 36.97C250.63 34.58 254.81 35.8 255.36 38.79C255.52 39.65 255.29 40.14 255.07 40.62C258.32 43.75 261.93 47.22 265.38 49.88C266.15 48.83 266.48 48.45 266.9 47.46C267.4 46.38 267.94 45.62 269.02 44.47C261.99 37.8 254.32 30.03 250.37 26C247.07 27.41 245.13 24.33 246.12 21.9C247.24 19.14 250.84 18.74 252.04 21.24C252.67 22.56 252.21 23.75 251.98 24.32C261.91 34.32 267.95 40.28 270.66 42.94L270.68 42.95ZM272.16 47.77C272.16 47.77 272.17 47.79 272.18 47.79C272.4 47.91 272.99 47.51 273.31 47.22C273.78 46.8 274 46.4 273.78 46.37C273.33 46.3 271.98 47.46 272.16 47.77Z" fill="#92C045"/>
<path d="M362.61 11.73C364.61 9.76001 366.95 8.24 369.65 7.16C372.35 6.09 375.26 5.54999 378.41 5.54999C381.56 5.54999 384.2 6.04001 386.79 7.01001C389.38 7.98001 391.76 9.57001 393.9 11.76L397.42 8.23999C395.12 5.68999 392.3 3.79001 388.96 2.51001C385.62 1.24001 382.05 0.600006 378.25 0.600006C374.45 0.600006 370.66 1.25999 367.32 2.57999C363.98 3.89999 361.07 5.76 358.6 8.16C356.13 10.56 354.21 13.38 352.84 16.62C351.47 19.86 350.78 23.41 350.78 27.25C350.78 31.09 351.47 34.64 352.84 37.88C354.21 41.13 356.12 43.94 358.57 46.34C361.01 48.74 363.91 50.6 367.25 51.92C370.59 53.24 374.24 53.9 378.18 53.9C382.12 53.9 385.62 53.25 388.96 51.95C392.3 50.65 395.12 48.73 397.42 46.19L393.9 42.67C391.75 44.87 389.38 46.46 386.79 47.46C384.19 48.46 381.4 48.96 378.41 48.96C375.27 48.96 372.35 48.42 369.65 47.35C366.95 46.28 364.61 44.76 362.61 42.78C360.61 40.81 359.05 38.51 357.93 35.89C356.81 33.27 356.25 30.39 356.25 27.24C356.25 24.09 356.81 21.21 357.93 18.59C359.05 15.97 360.61 13.67 362.61 11.7V11.73Z" fill="white"/>
<path d="M423.47 1.06L399.51 53.46H405.27L411.53 39.46H440.77L447.03 53.46H452.87L428.91 1.06H423.44H423.47ZM413.55 34.97L426.16 6.79001L438.77 34.97H413.55Z" fill="white"/>
<path d="M497.63 4.38998C493.41 2.16998 488.51 1.06 482.92 1.06H461.58V53.46H482.92C488.51 53.46 493.41 52.35 497.63 50.13C501.85 47.91 505.13 44.83 507.47 40.88C509.82 36.94 510.99 32.4 510.99 27.25C510.99 22.1 509.82 17.57 507.47 13.62C505.12 9.68 501.84 6.6 497.63 4.37V4.38998ZM502.68 38.38C500.78 41.6 498.12 44.12 494.71 45.94C491.29 47.76 487.26 48.67 482.62 48.67H467.12V5.85001H482.62C487.26 5.85001 491.29 6.75999 494.71 8.57999C498.13 10.4 500.79 12.91 502.68 16.1C504.58 19.29 505.52 23.01 505.52 27.25C505.52 31.49 504.57 35.15 502.68 38.37V38.38Z" fill="white"/>
<path d="M530.6 11.73C532.6 9.76001 534.94 8.24 537.64 7.16C540.34 6.09 543.25 5.54999 546.4 5.54999C549.55 5.54999 552.19 6.04001 554.78 7.01001C557.37 7.98001 559.75 9.57001 561.89 11.76L565.41 8.23999C563.11 5.68999 560.29 3.79001 556.95 2.51001C553.61 1.24001 550.04 0.600006 546.24 0.600006C542.44 0.600006 538.65 1.25999 535.31 2.57999C531.97 3.89999 529.06 5.76 526.59 8.16C524.12 10.56 522.2 13.38 520.83 16.62C519.46 19.86 518.77 23.41 518.77 27.25C518.77 31.09 519.46 34.64 520.83 37.88C522.2 41.13 524.11 43.94 526.56 46.34C529 48.74 531.9 50.6 535.24 51.92C538.58 53.24 542.23 53.9 546.17 53.9C550.11 53.9 553.61 53.25 556.95 51.95C560.29 50.65 563.11 48.73 565.41 46.19L561.89 42.67C559.74 44.87 557.37 46.46 554.78 47.46C552.18 48.46 549.39 48.96 546.4 48.96C543.26 48.96 540.34 48.42 537.64 47.35C534.94 46.28 532.6 44.76 530.6 42.78C528.6 40.81 527.04 38.51 525.92 35.89C524.8 33.27 524.24 30.39 524.24 27.24C524.24 24.09 524.8 21.21 525.92 18.59C527.04 15.97 528.6 13.67 530.6 11.7V11.73Z" fill="white"/>
<path d="M591.47 1.06L567.51 53.46H573.27L579.53 39.46H608.77L615.03 53.46H620.87L596.91 1.06H591.44H591.47ZM581.55 34.97L594.16 6.79001L606.77 34.97H581.55Z" fill="white"/>
<path d="M679.43 1.06L656.89 39.88L634.14 1.06H629.57V53.47H634.89V11.79L655.48 46.8H658.1L678.68 11.55V53.47H684V1.06H679.43Z" fill="white"/>
<path d="M14.96 79.92H17.04V96.74H14.96V93.89C13.81 95.23 12.37 96.12 10.65 96.56C8.92999 97.01 7.23 96.92 5.56 96.3C3.89 95.68 2.55 94.64 1.53 93.19C0.509999 91.74 0 90.12 0 88.33C0 86.54 0.509999 84.93 1.53 83.47C2.55 82.02 3.89 80.98 5.56 80.36C7.23 79.74 8.91999 79.65 10.65 80.1C12.37 80.55 13.81 81.45 14.96 82.81V79.92ZM4 93.24C5.28 94.68 6.79 95.4 8.52 95.4C10.25 95.4 11.76 94.68 13.04 93.24C14.32 91.8 14.96 90.17 14.96 88.35C14.96 86.53 14.32 84.91 13.04 83.48C11.76 82.05 10.25 81.33 8.52 81.33C6.79 81.33 5.28 82.05 4 83.48C2.72 84.91 2.08 86.54 2.08 88.35C2.08 90.16 2.72 91.8 4 93.24Z" fill="white"/>
<path d="M48.07 79.95H50.15V103.11H48.07V93.89C46.92 95.23 45.48 96.12 43.76 96.56C42.04 97.01 40.34 96.92 38.67 96.31C37 95.7 35.66 94.66 34.64 93.2C33.62 91.73 33.11 90.11 33.11 88.33C33.11 86.55 33.62 84.93 34.64 83.47C35.66 82.02 37 80.98 38.67 80.36C40.34 79.74 42.03 79.65 43.76 80.1C45.48 80.55 46.92 81.45 48.07 82.81V79.96V79.95ZM37.11 93.18C38.39 94.61 39.9 95.33 41.63 95.33C43.36 95.33 44.87 94.61 46.15 93.18C47.43 91.75 48.07 90.13 48.07 88.32C48.07 86.51 47.43 84.88 46.15 83.43C44.87 81.98 43.36 81.25 41.63 81.25C39.9 81.25 38.39 81.98 37.11 83.43C35.83 84.89 35.19 86.52 35.19 88.32C35.19 90.12 35.83 91.75 37.11 93.18Z" fill="white"/>
<path d="M79.18 79.99H81.26V96.74H79.18V93.92C78.55 94.65 77.82 95.23 77 95.68C76.55 95.91 76.09 96.11 75.59 96.28C74.65 96.59 73.68 96.74 72.67 96.74C71.26 96.79 70.01 96.35 68.9 95.44C68.78 95.35 68.67 95.24 68.55 95.12C67.28 93.67 66.71 91.96 66.83 90.02V79.99H68.91V90.02C68.79 91.4 69.18 92.64 70.07 93.72C70.82 94.42 71.71 94.81 72.74 94.88C74.38 95.04 75.86 94.68 77.17 93.79C78.48 92.9 79.15 91.64 79.18 90.02V79.99Z" fill="white"/>
<path d="M99.91 76.94C99.7 77.14 99.45 77.24 99.17 77.24C98.89 77.24 98.65 77.14 98.45 76.94C98.25 76.74 98.15 76.5 98.15 76.22C98.15 75.94 98.25 75.7 98.45 75.5C98.65 75.3 98.89 75.2 99.17 75.2C99.45 75.2 99.7 75.3 99.91 75.5C100.12 75.7 100.23 75.94 100.23 76.22C100.23 76.5 100.12 76.74 99.91 76.94ZM100.23 96.73H98.15V79.94H100.23V96.73Z" fill="white"/>
<path d="M145.72 87.73C146.56 87.96 147.28 88.25 147.87 88.59C148.46 88.93 148.9 89.3 149.21 89.7C149.51 90.1 149.73 90.49 149.84 90.86C149.96 91.24 150.02 91.62 150.02 92.02C150.02 93.33 149.42 94.45 148.21 95.36C147 96.28 145.53 96.73 143.79 96.73C142.22 96.73 140.81 96.35 139.57 95.59C138.33 94.83 137.59 93.88 137.35 92.76L138.76 92.48C139.25 93.4 139.94 94.11 140.84 94.61C141.73 95.11 142.69 95.34 143.73 95.3C144.93 95.3 145.95 95.01 146.81 94.42C147.67 93.83 148.09 93.04 148.09 92.03C148.09 91.02 147.13 90.24 145.2 89.74C144.85 89.65 144.25 89.53 143.41 89.39C142.82 89.27 142.41 89.19 142.18 89.14C140.73 88.84 139.59 88.28 138.77 87.49C137.95 86.69 137.54 85.74 137.54 84.64C137.54 83.3 138.14 82.18 139.35 81.26C140.56 80.34 142.04 79.89 143.8 79.89C144.9 79.89 145.93 80.17 146.9 80.72C147.86 81.27 148.62 82.03 149.19 82.99L147.85 83.59C147.4 82.89 146.82 82.33 146.11 81.94C145.39 81.54 144.63 81.34 143.8 81.34C143.07 81.34 142.37 81.52 141.69 81.87C141.01 82.22 140.48 82.65 140.09 83.15C139.7 83.65 139.51 84.15 139.51 84.65C139.51 85.87 140.54 86.7 142.61 87.15C142.8 87.17 143.18 87.24 143.77 87.36C144.69 87.52 145.34 87.65 145.74 87.75L145.72 87.73Z" fill="white"/>
<path d="M173.67 95.4C174.44 95.35 175.19 95.18 175.9 94.87C176.62 94.56 177.25 94.15 177.82 93.62C178.39 93.09 178.84 92.48 179.19 91.77L181.3 92.05C180.62 93.41 179.65 94.52 178.38 95.37C177.11 96.23 175.72 96.7 174.21 96.8C172.7 96.89 171.25 96.61 169.88 95.94C168.51 95.27 167.4 94.3 166.55 93.04C166.29 92.62 166.06 92.17 165.85 91.7C164.93 89.61 164.88 87.49 165.69 85.35C166.5 83.2 167.94 81.64 170 80.65C172.06 79.66 174.19 79.54 176.37 80.28C178.55 81.02 180.16 82.4 181.19 84.42C181.28 84.61 181.37 84.78 181.44 84.95C181.58 85.23 181.7 85.52 181.79 85.83L168.38 92.2C168.92 93.16 169.66 93.92 170.6 94.49C171.54 95.05 172.56 95.36 173.66 95.41L173.67 95.4ZM167.72 90.82L179.37 85.29C178.88 84.14 178.11 83.2 177.08 82.47C176.05 81.74 174.91 81.36 173.67 81.31C171.93 81.31 170.43 82.03 169.15 83.46C167.87 84.89 167.23 86.51 167.23 88.32C167.23 89.19 167.39 90.02 167.72 90.82Z" fill="white"/>
<path d="M209.7 79.99H211.78V96.74H209.7V93.92C209.07 94.65 208.34 95.23 207.52 95.68C207.07 95.91 206.6 96.11 206.11 96.28C205.17 96.59 204.2 96.74 203.19 96.74C201.78 96.79 200.53 96.35 199.42 95.44C199.3 95.35 199.19 95.24 199.07 95.12C197.8 93.67 197.23 91.96 197.35 90.02V79.99H199.43V90.02C199.31 91.4 199.7 92.64 200.59 93.72C201.34 94.42 202.23 94.81 203.26 94.88C204.9 95.04 206.38 94.68 207.69 93.79C209 92.9 209.67 91.64 209.7 90.02V79.99Z" fill="white"/>
<path d="M261.82 79.99H263.9V96.74H261.82V93.92C261.19 94.65 260.46 95.23 259.64 95.68C259.19 95.91 258.72 96.11 258.23 96.28C257.29 96.59 256.32 96.74 255.31 96.74C253.9 96.79 252.65 96.35 251.54 95.44C251.42 95.35 251.31 95.24 251.19 95.12C249.92 93.67 249.35 91.96 249.47 90.02V79.99H251.55V90.02C251.43 91.4 251.82 92.64 252.71 93.72C253.46 94.42 254.35 94.81 255.38 94.88C257.02 95.04 258.5 94.68 259.81 93.79C261.12 92.9 261.79 91.64 261.82 90.02V79.99Z" fill="white"/>
<path d="M288.35 87.73C289.19 87.96 289.91 88.25 290.5 88.59C291.09 88.93 291.53 89.3 291.84 89.7C292.14 90.1 292.36 90.49 292.47 90.86C292.59 91.24 292.65 91.62 292.65 92.02C292.65 93.33 292.05 94.45 290.84 95.36C289.63 96.28 288.16 96.73 286.42 96.73C284.85 96.73 283.44 96.35 282.2 95.59C280.96 94.83 280.22 93.88 279.98 92.76L281.39 92.48C281.88 93.4 282.57 94.11 283.47 94.61C284.36 95.11 285.32 95.34 286.36 95.3C287.56 95.3 288.58 95.01 289.44 94.42C290.3 93.83 290.72 93.04 290.72 92.03C290.72 91.02 289.76 90.24 287.83 89.74C287.48 89.65 286.88 89.53 286.04 89.39C285.45 89.27 285.04 89.19 284.81 89.14C283.36 88.84 282.22 88.28 281.4 87.49C280.58 86.7 280.17 85.74 280.17 84.64C280.17 83.3 280.77 82.18 281.98 81.26C283.19 80.34 284.67 79.89 286.43 79.89C287.53 79.89 288.57 80.17 289.53 80.72C290.49 81.27 291.25 82.03 291.82 82.99L290.48 83.59C290.03 82.89 289.45 82.33 288.74 81.94C288.02 81.54 287.26 81.34 286.43 81.34C285.7 81.34 285 81.52 284.32 81.87C283.64 82.22 283.11 82.65 282.72 83.15C282.33 83.65 282.14 84.15 282.14 84.65C282.14 85.87 283.17 86.7 285.24 87.15C285.43 87.17 285.81 87.24 286.4 87.36C287.32 87.52 287.97 87.65 288.37 87.75L288.35 87.73Z" fill="white"/>
<path d="M322.73 79.92H324.81V96.74H322.73V93.89C321.58 95.23 320.14 96.12 318.42 96.56C316.7 97.01 315 96.92 313.33 96.3C311.66 95.68 310.32 94.64 309.3 93.19C308.28 91.74 307.77 90.12 307.77 88.33C307.77 86.54 308.28 84.93 309.3 83.47C310.32 82.02 311.66 80.98 313.33 80.36C315 79.74 316.69 79.65 318.42 80.1C320.14 80.55 321.58 81.45 322.73 82.81V79.92ZM311.77 93.24C313.05 94.68 314.56 95.4 316.29 95.4C318.02 95.4 319.53 94.68 320.81 93.24C322.09 91.8 322.73 90.17 322.73 88.35C322.73 86.53 322.09 84.91 320.81 83.48C319.53 82.05 318.02 81.33 316.29 81.33C314.56 81.33 313.05 82.05 311.77 83.48C310.49 84.91 309.85 86.54 309.85 88.35C309.85 90.16 310.49 91.8 311.77 93.24Z" fill="white"/>
<path d="M357.92 73.55V96.74H355.84V93.89C354.69 95.23 353.25 96.12 351.53 96.56C349.81 97.01 348.11 96.92 346.44 96.31C344.77 95.7 343.43 94.66 342.41 93.2C341.39 91.73 340.88 90.12 340.88 88.34C340.88 86.56 341.39 84.95 342.41 83.48C343.43 82.01 344.77 80.97 346.44 80.35C348.11 79.73 349.8 79.64 351.53 80.09C353.25 80.54 354.69 81.44 355.84 82.8V73.54H357.92V73.55ZM353.93 93.24C355.21 91.8 355.85 90.17 355.85 88.35C355.85 86.53 355.21 84.91 353.93 83.48C352.65 82.05 351.14 81.33 349.41 81.33C347.68 81.33 346.17 82.05 344.89 83.48C343.61 84.91 342.97 86.54 342.97 88.35C342.97 90.16 343.61 91.8 344.89 93.24C346.17 94.68 347.68 95.4 349.41 95.4C351.14 95.4 352.65 94.68 353.93 93.24Z" fill="white"/>
<path d="M376.5 82.33C378.17 80.68 380.17 79.85 382.52 79.85C384.87 79.85 386.87 80.68 388.52 82.33C390.17 83.98 391 85.98 391 88.33C391 90.68 390.17 92.68 388.52 94.35C386.87 96.02 384.87 96.85 382.52 96.85C380.17 96.85 378.17 96.02 376.5 94.35C374.83 92.68 374 90.68 374 88.33C374 85.98 374.83 83.98 376.5 82.33ZM377.98 93.24C379.25 94.68 380.75 95.4 382.5 95.4C384.25 95.4 385.76 94.68 387.04 93.24C388.32 91.8 388.96 90.16 388.96 88.33C388.96 86.5 388.32 84.9 387.04 83.47C385.76 82.04 384.25 81.32 382.5 81.32C380.75 81.32 379.25 82.04 377.98 83.47C376.71 84.9 376.08 86.53 376.08 88.34C376.08 90.15 376.71 91.79 377.98 93.23V93.24Z" fill="white"/>
<path d="M442.91 79.92H444.6L436.72 96.74H434.33L426.45 79.92H428.74L435.81 95.09L442.92 79.92H442.91Z" fill="white"/>
<path d="M473.17 79.92H475.25V96.74H473.17V93.89C472.02 95.23 470.58 96.12 468.86 96.56C467.14 97.01 465.44 96.92 463.77 96.3C462.1 95.68 460.76 94.64 459.74 93.19C458.72 91.74 458.21 90.12 458.21 88.33C458.21 86.54 458.72 84.93 459.74 83.47C460.76 82.02 462.1 80.98 463.77 80.36C465.44 79.74 467.13 79.65 468.86 80.1C470.58 80.55 472.02 81.45 473.17 82.81V79.92ZM462.21 93.24C463.49 94.68 465 95.4 466.73 95.4C468.46 95.4 469.97 94.68 471.25 93.24C472.53 91.8 473.17 90.17 473.17 88.35C473.17 86.53 472.53 84.91 471.25 83.48C469.97 82.05 468.46 81.33 466.73 81.33C465 81.33 463.49 82.05 462.21 83.48C460.93 84.91 460.29 86.54 460.29 88.35C460.29 90.16 460.93 91.8 462.21 93.24Z" fill="white"/>
<path d="M494.25 96.74H492.17V73.55H494.25V96.74Z" fill="white"/>
<path d="M518.81 95.4C519.58 95.35 520.33 95.18 521.04 94.87C521.76 94.56 522.4 94.15 522.96 93.62C523.52 93.09 523.98 92.48 524.33 91.77L526.44 92.05C525.76 93.41 524.79 94.52 523.52 95.37C522.25 96.23 520.86 96.7 519.35 96.8C517.84 96.89 516.39 96.61 515.02 95.94C513.65 95.27 512.54 94.3 511.69 93.04C511.43 92.62 511.2 92.17 510.99 91.7C510.07 89.61 510.02 87.49 510.83 85.35C511.64 83.2 513.08 81.64 515.14 80.65C517.2 79.66 519.33 79.54 521.51 80.28C523.69 81.02 525.3 82.4 526.33 84.42C526.42 84.61 526.51 84.78 526.58 84.95C526.72 85.23 526.84 85.52 526.93 85.83L513.52 92.2C514.06 93.16 514.8 93.92 515.74 94.49C516.68 95.05 517.7 95.36 518.8 95.41L518.81 95.4ZM512.86 90.82L524.51 85.29C524.02 84.14 523.25 83.2 522.22 82.47C521.19 81.74 520.05 81.36 518.81 81.31C517.07 81.31 515.57 82.03 514.29 83.46C513.01 84.89 512.37 86.51 512.37 88.32C512.37 89.19 512.53 90.02 512.86 90.82Z" fill="white"/>
<path d="M583.39 81.04C584.59 82.26 585.16 83.73 585.11 85.44V96.74H583.07V85.44C583.07 85.23 583.05 84.99 583 84.72C582.95 84.45 582.86 84.09 582.72 83.65C582.58 83.2 582.32 82.83 581.95 82.52C581.57 82.22 581.12 82.06 580.58 82.06C579.17 81.99 577.96 82.44 576.96 83.42C575.95 84.39 575.47 85.58 575.52 86.99V96.74H573.44V85.44C573.44 85.3 573.43 85.14 573.4 84.95C573.38 84.76 573.32 84.49 573.22 84.12C573.13 83.76 573 83.43 572.85 83.15C572.7 82.87 572.45 82.62 572.11 82.39C571.77 82.17 571.38 82.06 570.93 82.06C569.55 81.99 568.35 82.44 567.34 83.4C566.33 84.36 565.84 85.55 565.86 86.95V96.73H563.78V79.94H565.86V82.83C566.45 81.99 567.19 81.32 568.08 80.82C568.97 80.32 569.92 80.05 570.93 79.98C572.01 79.96 572.95 80.31 573.75 81.04C574.41 81.65 574.86 82.4 575.12 83.29C575.31 83.03 575.44 82.87 575.51 82.8C575.79 82.4 576.12 82.03 576.5 81.69C576.88 81.35 577.28 81.06 577.71 80.83C578.14 80.6 578.6 80.41 579.08 80.27C579.56 80.13 580.06 80.04 580.58 79.99C581.66 79.97 582.6 80.32 583.4 81.05L583.39 81.04Z" fill="white"/>
<path d="M615.98 79.92H618.06V96.74H615.98V93.89C614.83 95.23 613.39 96.12 611.67 96.56C609.95 97.01 608.25 96.92 606.58 96.3C604.91 95.68 603.57 94.64 602.55 93.19C601.53 91.74 601.02 90.12 601.02 88.33C601.02 86.54 601.53 84.93 602.55 83.47C603.57 82.02 604.91 80.98 606.58 80.36C608.25 79.74 609.94 79.65 611.67 80.1C613.39 80.55 614.83 81.45 615.98 82.81V79.92ZM605.02 93.24C606.3 94.68 607.81 95.4 609.54 95.4C611.27 95.4 612.78 94.68 614.06 93.24C615.34 91.8 615.98 90.17 615.98 88.35C615.98 86.53 615.34 84.91 614.06 83.48C612.78 82.05 611.27 81.33 609.54 81.33C607.81 81.33 606.3 82.05 605.02 83.48C603.74 84.91 603.1 86.54 603.1 88.35C603.1 90.16 603.74 91.8 605.02 93.24Z" fill="white"/>
<path d="M636.74 76.94C636.53 77.14 636.28 77.24 636 77.24C635.72 77.24 635.48 77.14 635.28 76.94C635.08 76.74 634.98 76.5 634.98 76.22C634.98 75.94 635.08 75.7 635.28 75.5C635.48 75.3 635.72 75.2 636 75.2C636.28 75.2 636.53 75.3 636.74 75.5C636.95 75.7 637.06 75.94 637.06 76.22C637.06 76.5 636.95 76.74 636.74 76.94ZM637.06 96.73H634.98V79.94H637.06V96.73Z" fill="white"/>
<path d="M661.51 87.73C662.35 87.96 663.07 88.25 663.66 88.59C664.25 88.93 664.69 89.3 665 89.7C665.3 90.1 665.52 90.49 665.63 90.86C665.75 91.24 665.81 91.62 665.81 92.02C665.81 93.33 665.21 94.45 664 95.36C662.79 96.28 661.32 96.73 659.58 96.73C658.01 96.73 656.6 96.35 655.36 95.59C654.12 94.83 653.38 93.88 653.14 92.76L654.55 92.48C655.04 93.4 655.73 94.11 656.63 94.61C657.52 95.11 658.48 95.34 659.52 95.3C660.72 95.3 661.74 95.01 662.6 94.42C663.46 93.83 663.88 93.04 663.88 92.03C663.88 91.02 662.92 90.24 660.99 89.74C660.64 89.65 660.04 89.53 659.2 89.39C658.61 89.27 658.2 89.19 657.97 89.14C656.52 88.84 655.38 88.28 654.56 87.49C653.74 86.7 653.33 85.74 653.33 84.64C653.33 83.3 653.93 82.18 655.14 81.26C656.35 80.34 657.83 79.89 659.59 79.89C660.69 79.89 661.73 80.17 662.69 80.72C663.65 81.27 664.41 82.03 664.98 82.99L663.64 83.59C663.19 82.89 662.61 82.33 661.9 81.94C661.18 81.54 660.42 81.34 659.59 81.34C658.86 81.34 658.16 81.52 657.48 81.87C656.8 82.22 656.27 82.65 655.88 83.15C655.49 83.65 655.3 84.15 655.3 84.65C655.3 85.87 656.33 86.7 658.4 87.15C658.59 87.17 658.97 87.24 659.56 87.36C660.48 87.52 661.13 87.65 661.53 87.75L661.51 87.73Z" fill="white"/>
<path d="M682.08 94.57C682.3 94.35 682.57 94.24 682.89 94.24C683.21 94.24 683.47 94.35 683.68 94.57C683.89 94.79 684 95.06 684 95.38C684 95.7 683.89 95.97 683.68 96.19C683.47 96.41 683.2 96.52 682.89 96.52C682.58 96.52 682.3 96.41 682.08 96.19C681.86 95.97 681.75 95.7 681.75 95.38C681.75 95.06 681.86 94.79 682.08 94.57ZM683.47 91.95H682.31L681.85 73.62H683.93L683.47 91.95Z" fill="white"/>
</svg>
